<svg width="97" height="88" viewBox="0 0 97 88" fill="none" xmlns="http://www.w3.org/2000/svg">
<path d="M60.0805 33.2774C58.8587 33.2774 57.7241 33.0665 56.6768 32.6447C55.6296 32.2229 54.7132 31.6338 53.9278 30.8774C53.1568 30.1065 52.5532 29.2119 52.1168 28.1938C51.702 27.2257 51.4843 26.1788 51.4639 25.053C51.4628 24.9947 51.4623 24.9362 51.4623 24.8774C51.4623 24.5666 51.4766 24.2618 51.5053 23.9629C51.5865 23.1145 51.7831 22.3139 52.095 21.561C52.5314 20.5429 53.135 19.6556 53.9059 18.8992C54.6914 18.1429 55.6078 17.5538 56.655 17.1319C57.4487 16.8123 58.2966 16.6137 59.1989 16.5363C59.4872 16.5116 59.7811 16.4992 60.0805 16.4992C61.3168 16.4992 62.4587 16.7101 63.5059 17.1319C64.5532 17.5538 65.4623 18.1429 66.2332 18.8992C66.7363 19.3837 67.1649 19.9219 67.5188 20.5139C67.7174 20.846 67.8925 21.1951 68.0441 21.561C68.4805 22.5792 68.6987 23.6847 68.6987 24.8774C68.6987 26.0701 68.4805 27.1756 68.0441 28.1938C67.6278 29.1651 67.0526 30.024 66.3186 30.7703C66.2832 30.8063 66.2475 30.842 66.2114 30.8774C65.987 31.0975 65.751 31.3035 65.5032 31.4952C64.8997 31.9625 64.2266 32.3456 63.4841 32.6447C62.4368 33.0665 61.3023 33.2774 60.0805 33.2774ZM60.0805 30.2229C60.8223 30.2229 61.5059 30.092 62.1314 29.8301C62.4882 29.6842 62.8202 29.5065 63.1273 29.2972C63.371 29.1312 63.599 28.9452 63.8114 28.7392C63.8656 28.685 63.9185 28.6296 63.97 28.5731C64.3738 28.1299 64.6919 27.618 64.9241 27.0374C65.1859 26.3829 65.3168 25.6629 65.3168 24.8774C65.3168 24.0919 65.1859 23.3792 64.9241 22.7392C64.6623 22.0847 64.2914 21.5174 63.8114 21.0374C63.3314 20.5574 62.7714 20.1938 62.1314 19.9465C61.5059 19.6847 60.8223 19.5538 60.0805 19.5538C59.3387 19.5538 58.6478 19.6847 58.0078 19.9465C57.3823 20.1938 56.8296 20.5574 56.3496 21.0374C55.8696 21.5174 55.4987 22.0847 55.2368 22.7392C55.0361 23.2298 54.9124 23.7632 54.8655 24.3393C54.8512 24.5147 54.8441 24.6941 54.8441 24.8774C54.8441 25.0733 54.8523 25.2651 54.8685 25.4529C54.9176 26.0179 55.0403 26.5461 55.2368 27.0374C55.4987 27.6919 55.8696 28.2592 56.3496 28.7392C56.8296 29.2047 57.3823 29.5683 58.0078 29.8301C58.6478 30.092 59.3387 30.2229 60.0805 30.2229Z" fill="white"/>
<path d="M60.0805 33.2774C58.8587 33.2774 57.7241 33.0665 56.6768 32.6447C55.6296 32.2229 54.7132 31.6338 53.9278 30.8774C53.1568 30.1065 52.5532 29.2119 52.1168 28.1938C51.702 27.2257 51.4843 26.1788 51.4639 25.053C51.4628 24.9947 51.4623 24.9362 51.4623 24.8774C51.4623 24.5666 51.4766 24.2618 51.5053 23.9629C51.5865 23.1145 51.7831 22.3139 52.095 21.561C52.5314 20.5429 53.135 19.6556 53.9059 18.8992C54.6914 18.1429 55.6078 17.5538 56.655 17.1319C57.4487 16.8123 58.2966 16.6137 59.1989 16.5363C59.4872 16.5116 59.7811 16.4992 60.0805 16.4992C61.3168 16.4992 62.4587 16.7101 63.5059 17.1319C64.5532 17.5538 65.4623 18.1429 66.2332 18.8992C66.7363 19.3837 67.1649 19.9219 67.5188 20.5139C67.7174 20.846 67.8925 21.1951 68.0441 21.561C68.4805 22.5792 68.6987 23.6847 68.6987 24.8774C68.6987 26.0701 68.4805 27.1756 68.0441 28.1938C67.6278 29.1651 67.0526 30.024 66.3186 30.7703C66.2832 30.8063 66.2475 30.842 66.2114 30.8774C65.987 31.0975 65.751 31.3035 65.5032 31.4952C64.8997 31.9625 64.2266 32.3456 63.4841 32.6447C62.4368 33.0665 61.3023 33.2774 60.0805 33.2774ZM60.0805 30.2229C60.8223 30.2229 61.5059 30.092 62.1314 29.8301C62.4882 29.6842 62.8202 29.5065 63.1273 29.2972C63.371 29.1312 63.599 28.9452 63.8114 28.7392C63.8656 28.685 63.9185 28.6296 63.97 28.5731C64.3738 28.1299 64.6919 27.618 64.9241 27.0374C65.1859 26.3829 65.3168 25.6629 65.3168 24.8774C65.3168 24.0919 65.1859 23.3792 64.9241 22.7392C64.6623 22.0847 64.2914 21.5174 63.8114 21.0374C63.3314 20.5574 62.7714 20.1938 62.1314 19.9465C61.5059 19.6847 60.8223 19.5538 60.0805 19.5538C59.3387 19.5538 58.6478 19.6847 58.0078 19.9465C57.3823 20.1938 56.8296 20.5574 56.3496 21.0374C55.8696 21.5174 55.4987 22.0847 55.2368 22.7392C55.0361 23.2298 54.9124 23.7632 54.8655 24.3393C54.8512 24.5147 54.8441 24.6941 54.8441 24.8774C54.8441 25.0733 54.8523 25.2651 54.8685 25.4529C54.9176 26.0179 55.0403 26.5461 55.2368 27.0374C55.4987 27.6919 55.8696 28.2592 56.3496 28.7392C56.8296 29.2047 57.3823 29.5683 58.0078 29.8301C58.6478 30.092 59.3387 30.2229 60.0805 30.2229Z" fill="#74ACFF"/>
<path d="M43.7286 33.2774C42.7104 33.2774 41.7504 33.0956 40.8486 32.732C39.9613 32.3538 39.1904 31.8229 38.5359 31.1392C38.2136 30.795 37.9319 30.4193 37.6907 30.0124C37.5014 29.6928 37.337 29.3539 37.1977 28.9957C37.1621 28.9042 37.1282 28.8114 37.0959 28.7174L38.0965 28.2683L39.8668 27.4738C39.9718 27.7024 40.0869 27.9185 40.2121 28.1221C40.5728 28.7083 41.0177 29.1904 41.5468 29.5683C42.2741 30.0774 43.0741 30.332 43.9468 30.332C44.4122 30.332 44.8122 30.2592 45.1468 30.1138C45.4813 29.9683 45.7432 29.772 45.9322 29.5247C46.1213 29.2629 46.2159 28.9574 46.2159 28.6083C46.2159 28.2301 46.0995 27.9101 45.8668 27.6483C45.6341 27.372 45.2704 27.1538 44.7759 26.9938L43.3223 26.5159L41.7779 26.0081L41.5904 25.9465C40.2959 25.5247 39.3213 24.9283 38.6668 24.1574C38.0123 23.3719 37.685 22.4338 37.685 21.3429C37.685 20.3829 37.9177 19.5392 38.3832 18.8119C38.7101 18.3165 39.1214 17.8954 39.6171 17.5485C39.8491 17.3861 40.0996 17.24 40.3686 17.1101C40.9985 16.8112 41.695 16.622 42.458 16.5425C42.7346 16.5136 43.02 16.4992 43.3141 16.4992C44.2886 16.4992 45.1904 16.6665 46.0195 17.001C46.8486 17.3356 47.5613 17.8083 48.1577 18.4192C48.7686 19.0301 49.2268 19.7647 49.5322 20.6229L46.7832 21.8665C46.4777 21.1101 46.0195 20.521 45.4086 20.0992C44.7977 19.6629 44.0995 19.4447 43.3141 19.4447C42.8632 19.4447 42.4632 19.5174 42.1141 19.6629C41.765 19.8083 41.4959 20.0192 41.3068 20.2956C41.1177 20.5574 41.0232 20.8629 41.0232 21.2119C41.0232 21.5901 41.1468 21.9247 41.3941 22.2156C41.6413 22.4919 42.0122 22.7101 42.5068 22.8701L45.6268 23.8738C46.0547 24.0116 46.4468 24.1674 46.8032 24.341C47.3283 24.5968 47.7757 24.8913 48.1456 25.2246C48.2928 25.3573 48.4278 25.4961 48.5504 25.641C49.205 26.3974 49.5322 27.321 49.5322 28.4119C49.5322 29.3574 49.285 30.201 48.7904 30.9429C48.2959 31.6701 47.6122 32.2447 46.7395 32.6665C45.8813 33.0738 44.8777 33.2774 43.7286 33.2774Z" fill="white"/>
<path d="M43.7286 33.2774C42.7104 33.2774 41.7504 33.0956 40.8486 32.732C39.9613 32.3538 39.1904 31.8229 38.5359 31.1392C38.2136 30.795 37.9319 30.4193 37.6907 30.0124C37.5014 29.6928 37.337 29.3539 37.1977 28.9957C37.1621 28.9042 37.1282 28.8114 37.0959 28.7174L38.0965 28.2683L39.8668 27.4738C39.9718 27.7024 40.0869 27.9185 40.2121 28.1221C40.5728 28.7083 41.0177 29.1904 41.5468 29.5683C42.2741 30.0774 43.0741 30.332 43.9468 30.332C44.4122 30.332 44.8122 30.2592 45.1468 30.1138C45.4813 29.9683 45.7432 29.772 45.9322 29.5247C46.1213 29.2629 46.2159 28.9574 46.2159 28.6083C46.2159 28.2301 46.0995 27.9101 45.8668 27.6483C45.6341 27.372 45.2704 27.1538 44.7759 26.9938L43.3223 26.5159L41.7779 26.0081L41.5904 25.9465C40.2959 25.5247 39.3213 24.9283 38.6668 24.1574C38.0123 23.3719 37.685 22.4338 37.685 21.3429C37.685 20.3829 37.9177 19.5392 38.3832 18.8119C38.7101 18.3165 39.1214 17.8954 39.6171 17.5485C39.8491 17.3861 40.0996 17.24 40.3686 17.1101C40.9985 16.8112 41.695 16.622 42.458 16.5425C42.7346 16.5136 43.02 16.4992 43.3141 16.4992C44.2886 16.4992 45.1904 16.6665 46.0195 17.001C46.8486 17.3356 47.5613 17.8083 48.1577 18.4192C48.7686 19.0301 49.2268 19.7647 49.5322 20.6229L46.7832 21.8665C46.4777 21.1101 46.0195 20.521 45.4086 20.0992C44.7977 19.6629 44.0995 19.4447 43.3141 19.4447C42.8632 19.4447 42.4632 19.5174 42.1141 19.6629C41.765 19.8083 41.4959 20.0192 41.3068 20.2956C41.1177 20.5574 41.0232 20.8629 41.0232 21.2119C41.0232 21.5901 41.1468 21.9247 41.3941 22.2156C41.6413 22.4919 42.0122 22.7101 42.5068 22.8701L45.6268 23.8738C46.0547 24.0116 46.4468 24.1674 46.8032 24.341C47.3283 24.5968 47.7757 24.8913 48.1456 25.2246C48.2928 25.3573 48.4278 25.4961 48.5504 25.641C49.205 26.3974 49.5322 27.321 49.5322 28.4119C49.5322 29.3574 49.285 30.201 48.7904 30.9429C48.2959 31.6701 47.6122 32.2447 46.7395 32.6665C45.8813 33.0738 44.8777 33.2774 43.7286 33.2774Z" fill="#74ACFF"/>
<path d="M31.5517 33.0156V22.5305V21.1058V16.761H34.9335V18.71V19.9982V31.2475V32.9794V33.0156H34.9062H33.5591H31.5517Z" fill="white"/>
<path d="M31.5517 33.0156V22.5305V21.1058V16.761H34.9335V18.71V19.9982V31.2475V32.9794V33.0156H34.9062H33.5591H31.5517Z" fill="#74ACFF"/>
<path fill-rule="evenodd" clip-rule="evenodd" d="M49.6107 2.70117C46.9342 2.70117 45.2459 4.00315 43.6478 5.23562C42.5593 6.07505 41.5126 6.88224 40.224 7.22386C40.1728 7.23952 40.1212 7.25445 40.0693 7.26866L39.9073 7.31044C38.5762 7.63333 37.0252 7.51895 35.4151 7.40019C33.1028 7.22965 30.6684 7.0501 28.5876 8.14373C26.5663 9.20617 25.9994 10.8812 25.4196 12.594C24.9536 13.9708 24.4794 15.372 23.2349 16.4992C21.8708 17.7348 20.312 18.4214 18.8187 19.0791C16.6602 20.0298 14.6384 20.9203 13.5379 23.3216C12.8914 24.7325 12.8822 28.7945 13.2224 32.7573C12.7981 34.1453 12.4528 35.5672 12.1919 37.018H2.7207V71.5131H23.5249C24.5566 72.5875 24.9915 73.8723 25.4194 75.1364C25.9991 76.8493 26.566 78.5243 28.5874 79.5867C30.6681 80.6803 33.1025 80.5008 35.4148 80.3302C37.1544 80.2019 38.8249 80.0787 40.2237 80.5066C41.5124 80.8482 42.559 81.6554 43.6475 82.4948C45.2457 83.7273 46.9339 85.0293 49.6104 85.0293V81.1969H49.6147V85.0293C52.2911 85.0293 53.9794 83.7273 55.5776 82.4948C56.6661 81.6554 57.7127 80.8482 59.0014 80.5066C60.4002 80.0787 62.0707 80.2019 63.8103 80.3302C66.1226 80.5008 68.557 80.6803 70.6377 79.5867C72.6591 78.5243 73.226 76.8493 73.8057 75.1364C74.2336 73.8723 74.6685 72.5875 75.7002 71.5131H95.2298V37.018H87.04C86.778 35.5617 86.4312 34.1344 86.0046 32.7414C86.3434 28.7836 86.3334 24.7306 85.6877 23.3216C84.5872 20.9203 82.5654 20.0298 80.407 19.0791C78.9136 18.4214 77.3549 17.7349 75.9907 16.4992C74.7462 15.372 74.272 13.9708 73.806 12.594C73.2262 10.8812 72.6593 9.20617 70.638 8.14373C68.5573 7.0501 66.1229 7.22965 63.8105 7.40019C62.227 7.51698 60.7008 7.62955 59.3846 7.32613C59.2878 7.30076 59.1908 7.27576 59.0937 7.25113C59.0629 7.2423 59.0322 7.23321 59.0016 7.22386C57.713 6.88224 56.6663 6.07505 55.5778 5.23562C53.9797 4.00315 52.2914 2.70117 49.6149 2.70117V6.0742L49.6107 6.0742V2.70117ZM83.646 37.018C80.5258 21.2606 66.4761 9.37048 49.6159 9.37048C32.7558 9.37048 18.706 21.2606 15.5858 37.018H19.6324H20.7508H29.6109H30.7645H68.4607H69.6143H78.4743H79.5928H83.646ZM66.2114 30.8774C65.987 31.0975 65.751 31.3035 65.5032 31.4952C64.7714 30.7003 63.9767 29.9649 63.1273 29.2972C63.371 29.1312 63.599 28.9452 63.8114 28.7392C63.8656 28.685 63.9185 28.6296 63.97 28.5731C64.807 29.2451 65.5922 29.9798 66.3186 30.7703C66.2832 30.8063 66.2475 30.842 66.2114 30.8774ZM54.8655 24.3393C53.7732 24.1265 52.6508 23.9987 51.5053 23.9629C51.4766 24.2618 51.4623 24.5666 51.4623 24.8774C51.4623 24.9362 51.4628 24.9947 51.4639 25.053C52.6265 25.089 53.7641 25.225 54.8685 25.4529C54.8523 25.2651 54.8441 25.0733 54.8441 24.8774C54.8441 24.6941 54.8512 24.5147 54.8655 24.3393ZM46.8032 24.341C47.3283 24.5968 47.7757 24.8913 48.1456 25.2246C46.4625 25.453 44.8457 25.8926 43.3223 26.5159L41.7779 26.0081C43.3547 25.251 45.0396 24.6853 46.8032 24.341ZM38.0965 28.2683C37.7903 28.5026 37.4906 28.7452 37.1977 28.9957C37.337 29.3539 37.5014 29.6928 37.6907 30.0124C38.4792 29.3185 39.3221 28.6859 40.2121 28.1221C40.0869 27.9185 39.9718 27.7024 39.8668 27.4738L38.0965 28.2683ZM33.5591 33.0156C33.9867 32.4016 34.4456 31.8115 34.9335 31.2475V32.9794L34.9062 33.0156H33.5591ZM34.9335 18.71C33.7517 19.4328 32.6221 20.2338 31.5517 21.1058V22.5305C32.6161 21.6088 33.746 20.762 34.9335 19.9982V18.71ZM39.6171 17.5485C40.5417 17.1664 41.4896 16.8301 42.458 16.5425C41.695 16.622 40.9985 16.8112 40.3686 17.1101C40.0996 17.24 39.8491 17.3861 39.6171 17.5485ZM59.1989 16.5363C62.1965 17.4243 64.9972 18.7777 67.5188 20.5139C67.1649 19.9219 66.7363 19.3837 66.2332 18.8992C65.4623 18.1429 64.5532 17.5538 63.5059 17.1319C62.4587 16.7101 61.3168 16.4992 60.0805 16.4992C59.7811 16.4992 59.4872 16.5116 59.1989 16.5363ZM28.5827 45.5488L22.0593 54.8242L21.354 55.8271V55.9823V59.2307H22.9614H24.2245H29.994V63.4198H34.0521V59.2307H35.0788H36.7049H37.0631V55.8271H34.0521V43.9143H29.7321L29.6059 44.0939L28.5827 45.5488ZM29.994 48.882V51.6525V55.8271H25.3029L29.3654 49.8127L29.994 48.882ZM38.4558 71.5131H60.7694H63.3892H69.7828C64.1006 75.534 57.138 77.9006 49.6159 77.9006C42.0939 77.9006 35.1313 75.534 29.449 71.5131H35.836H38.4558ZM11.7868 47.3442H10.3554V43.9143H11.6049H14.9408H18.2099V58.1809V63.4198H14.1517V47.3442H11.7868ZM47.015 63.734C46.7112 63.734 46.4144 63.718 46.1246 63.6859C45.6323 63.5986 45.1461 63.4931 44.6668 63.3702C44.0403 63.162 43.4528 62.8643 42.9045 62.4773C41.735 61.6394 40.8186 60.4613 40.1554 58.9427C39.4921 57.4242 39.1605 55.6613 39.1605 53.654C39.1605 51.6293 39.4834 49.8663 40.1292 48.3653C40.7925 46.8642 41.7088 45.6947 42.8783 44.8569C44.0652 44.0191 45.4354 43.6002 46.9888 43.6002C48.5772 43.6002 49.9561 44.0191 51.1255 44.8569C52.3125 45.6947 53.2288 46.8729 53.8746 48.3914C54.5379 49.8925 54.8695 51.6467 54.8695 53.654C54.8695 55.6613 54.5379 57.4242 53.8746 58.9427C53.2288 60.4438 52.3125 61.622 51.1255 62.4773C49.9561 63.3151 48.5859 63.734 47.015 63.734ZM47.0412 60.0685C47.8441 60.0685 48.5248 59.8154 49.0834 59.3093C49.6419 58.8031 50.0695 58.07 50.3663 57.11C50.663 56.15 50.8114 54.998 50.8114 53.654C50.8114 52.31 50.663 51.1667 50.3663 50.2242C50.0695 49.2642 49.6332 48.5311 49.0572 48.0249C48.4986 47.5187 47.8092 47.2656 46.9888 47.2656C46.1859 47.2656 45.5052 47.5187 44.9466 48.0249C44.3881 48.5311 43.9605 49.2642 43.6637 50.2242C43.367 51.1667 43.2186 52.31 43.2186 53.654C43.2186 54.9805 43.367 56.1238 43.6637 57.0838C43.9605 58.0438 44.3881 58.7856 44.9466 59.3093C45.5226 59.8154 46.2208 60.0685 47.0412 60.0685ZM62.9016 58.8973C62.5239 58.4193 62.2221 57.8148 61.9961 57.0838C61.6994 56.1238 61.551 54.9805 61.551 53.654C61.551 52.31 61.6994 51.1667 61.9961 50.2242C62.2928 49.2642 62.7205 48.5311 63.279 48.0249C63.8376 47.5187 64.5183 47.2656 65.3212 47.2656C66.1416 47.2656 66.831 47.5187 67.3896 48.0249C67.9313 48.501 68.3496 49.1779 68.6443 50.0555C68.6629 50.1109 68.681 50.1671 68.6987 50.2242C68.8704 50.7697 68.9924 51.3825 69.0648 52.0626C69.1174 52.5575 69.1437 53.0879 69.1437 53.654C69.1437 54.998 68.9954 56.15 68.6987 57.11C68.4019 58.07 67.9743 58.8031 67.4157 59.3093C66.8572 59.8154 66.1765 60.0685 65.3736 60.0685C64.751 60.0685 64.1987 59.9227 63.7169 59.6312C63.5638 59.5386 63.4179 59.4313 63.279 59.3093C63.1458 59.1843 63.02 59.047 62.9016 58.8973ZM70.6141 45.8718C71.2583 46.5692 71.7893 47.4091 72.207 48.3914C72.8703 49.8925 73.2019 51.6467 73.2019 53.654C73.2019 55.6613 72.8703 57.4242 72.207 58.9427C71.5612 60.4438 70.6448 61.622 69.4579 62.4773C68.2885 63.3151 66.9183 63.734 65.3474 63.734C63.7939 63.734 62.4237 63.3151 61.2368 62.4773C61.0177 62.3203 60.8075 62.1513 60.6061 61.9705C60.3316 61.7238 60.0736 61.455 59.8321 61.164C59.3054 60.5292 58.8573 59.7888 58.4878 58.9427C57.8245 57.4242 57.4928 55.6613 57.4928 53.654C57.4928 51.6293 57.8158 49.8663 58.4616 48.3653C59.1248 46.8642 60.0412 45.6947 61.2107 44.8569C62.3976 44.0191 63.7677 43.6002 65.3212 43.6002C66.9096 43.6002 68.2885 44.0191 69.4579 44.8569C69.5022 44.8881 69.5461 44.9199 69.5896 44.9521C69.9581 45.2247 70.2996 45.5313 70.6141 45.8718ZM78.967 47.3442V47.8965V52.9725V61.8899V63.4198H83.0252V52.8456V43.9143H80.3324H79.2415H75.1707V47.3442H78.967Z" fill="white"/>
<path fill-rule="evenodd" clip-rule="evenodd" d="M49.6107 2.70117C46.9342 2.70117 45.2459 4.00315 43.6478 5.23562C42.5593 6.07505 41.5126 6.88224 40.224 7.22386C40.1728 7.23952 40.1212 7.25445 40.0693 7.26866L39.9073 7.31044C38.5762 7.63333 37.0252 7.51895 35.4151 7.40019C33.1028 7.22965 30.6684 7.0501 28.5876 8.14373C26.5663 9.20617 25.9994 10.8812 25.4196 12.594C24.9536 13.9708 24.4794 15.372 23.2349 16.4992C21.8708 17.7348 20.312 18.4214 18.8187 19.0791C16.6602 20.0298 14.6384 20.9203 13.5379 23.3216C12.8914 24.7325 12.8822 28.7945 13.2224 32.7573C12.7981 34.1453 12.4528 35.5672 12.1919 37.018H2.7207V71.5131H23.5249C24.5566 72.5875 24.9915 73.8723 25.4194 75.1364C25.9991 76.8493 26.566 78.5243 28.5874 79.5867C30.6681 80.6803 33.1025 80.5008 35.4148 80.3302C37.1544 80.2019 38.8249 80.0787 40.2237 80.5066C41.5124 80.8482 42.559 81.6554 43.6475 82.4948C45.2457 83.7273 46.9339 85.0293 49.6104 85.0293V81.1969H49.6147V85.0293C52.2911 85.0293 53.9794 83.7273 55.5776 82.4948C56.6661 81.6554 57.7127 80.8482 59.0014 80.5066C60.4002 80.0787 62.0707 80.2019 63.8103 80.3302C66.1226 80.5008 68.557 80.6803 70.6377 79.5867C72.6591 78.5243 73.226 76.8493 73.8057 75.1364C74.2336 73.8723 74.6685 72.5875 75.7002 71.5131H95.2298V37.018H87.04C86.778 35.5617 86.4312 34.1344 86.0046 32.7414C86.3434 28.7836 86.3334 24.7306 85.6877 23.3216C84.5872 20.9203 82.5654 20.0298 80.407 19.0791C78.9136 18.4214 77.3549 17.7349 75.9907 16.4992C74.7462 15.372 74.272 13.9708 73.806 12.594C73.2262 10.8812 72.6593 9.20617 70.638 8.14373C68.5573 7.0501 66.1229 7.22965 63.8105 7.40019C62.227 7.51698 60.7008 7.62955 59.3846 7.32613C59.2878 7.30076 59.1908 7.27576 59.0937 7.25113C59.0629 7.2423 59.0322 7.23321 59.0016 7.22386C57.713 6.88224 56.6663 6.07505 55.5778 5.23562C53.9797 4.00315 52.2914 2.70117 49.6149 2.70117V6.0742L49.6107 6.0742V2.70117ZM83.646 37.018C80.5258 21.2606 66.4761 9.37048 49.6159 9.37048C32.7558 9.37048 18.706 21.2606 15.5858 37.018H19.6324H20.7508H29.6109H30.7645H68.4607H69.6143H78.4743H79.5928H83.646ZM66.2114 30.8774C65.987 31.0975 65.751 31.3035 65.5032 31.4952C64.7714 30.7003 63.9767 29.9649 63.1273 29.2972C63.371 29.1312 63.599 28.9452 63.8114 28.7392C63.8656 28.685 63.9185 28.6296 63.97 28.5731C64.807 29.2451 65.5922 29.9798 66.3186 30.7703C66.2832 30.8063 66.2475 30.842 66.2114 30.8774ZM54.8655 24.3393C53.7732 24.1265 52.6508 23.9987 51.5053 23.9629C51.4766 24.2618 51.4623 24.5666 51.4623 24.8774C51.4623 24.9362 51.4628 24.9947 51.4639 25.053C52.6265 25.089 53.7641 25.225 54.8685 25.4529C54.8523 25.2651 54.8441 25.0733 54.8441 24.8774C54.8441 24.6941 54.8512 24.5147 54.8655 24.3393ZM46.8032 24.341C47.3283 24.5968 47.7757 24.8913 48.1456 25.2246C46.4625 25.453 44.8457 25.8926 43.3223 26.5159L41.7779 26.0081C43.3547 25.251 45.0396 24.6853 46.8032 24.341ZM38.0965 28.2683C37.7903 28.5026 37.4906 28.7452 37.1977 28.9957C37.337 29.3539 37.5014 29.6928 37.6907 30.0124C38.4792 29.3185 39.3221 28.6859 40.2121 28.1221C40.0869 27.9185 39.9718 27.7024 39.8668 27.4738L38.0965 28.2683ZM33.5591 33.0156C33.9867 32.4016 34.4456 31.8115 34.9335 31.2475V32.9794L34.9062 33.0156H33.5591ZM34.9335 18.71C33.7517 19.4328 32.6221 20.2338 31.5517 21.1058V22.5305C32.6161 21.6088 33.746 20.762 34.9335 19.9982V18.71ZM39.6171 17.5485C40.5417 17.1664 41.4896 16.8301 42.458 16.5425C41.695 16.622 40.9985 16.8112 40.3686 17.1101C40.0996 17.24 39.8491 17.3861 39.6171 17.5485ZM59.1989 16.5363C62.1965 17.4243 64.9972 18.7777 67.5188 20.5139C67.1649 19.9219 66.7363 19.3837 66.2332 18.8992C65.4623 18.1429 64.5532 17.5538 63.5059 17.1319C62.4587 16.7101 61.3168 16.4992 60.0805 16.4992C59.7811 16.4992 59.4872 16.5116 59.1989 16.5363ZM28.5827 45.5488L22.0593 54.8242L21.354 55.8271V55.9823V59.2307H22.9614H24.2245H29.994V63.4198H34.0521V59.2307H35.0788H36.7049H37.0631V55.8271H34.0521V43.9143H29.7321L29.6059 44.0939L28.5827 45.5488ZM29.994 48.882V51.6525V55.8271H25.3029L29.3654 49.8127L29.994 48.882ZM38.4558 71.5131H60.7694H63.3892H69.7828C64.1006 75.534 57.138 77.9006 49.6159 77.9006C42.0939 77.9006 35.1313 75.534 29.449 71.5131H35.836H38.4558ZM11.7868 47.3442H10.3554V43.9143H11.6049H14.9408H18.2099V58.1809V63.4198H14.1517V47.3442H11.7868ZM47.015 63.734C46.7112 63.734 46.4144 63.718 46.1246 63.6859C45.6323 63.5986 45.1461 63.4931 44.6668 63.3702C44.0403 63.162 43.4528 62.8643 42.9045 62.4773C41.735 61.6394 40.8186 60.4613 40.1554 58.9427C39.4921 57.4242 39.1605 55.6613 39.1605 53.654C39.1605 51.6293 39.4834 49.8663 40.1292 48.3653C40.7925 46.8642 41.7088 45.6947 42.8783 44.8569C44.0652 44.0191 45.4354 43.6002 46.9888 43.6002C48.5772 43.6002 49.9561 44.0191 51.1255 44.8569C52.3125 45.6947 53.2288 46.8729 53.8746 48.3914C54.5379 49.8925 54.8695 51.6467 54.8695 53.654C54.8695 55.6613 54.5379 57.4242 53.8746 58.9427C53.2288 60.4438 52.3125 61.622 51.1255 62.4773C49.9561 63.3151 48.5859 63.734 47.015 63.734ZM47.0412 60.0685C47.8441 60.0685 48.5248 59.8154 49.0834 59.3093C49.6419 58.8031 50.0695 58.07 50.3663 57.11C50.663 56.15 50.8114 54.998 50.8114 53.654C50.8114 52.31 50.663 51.1667 50.3663 50.2242C50.0695 49.2642 49.6332 48.5311 49.0572 48.0249C48.4986 47.5187 47.8092 47.2656 46.9888 47.2656C46.1859 47.2656 45.5052 47.5187 44.9466 48.0249C44.3881 48.5311 43.9605 49.2642 43.6637 50.2242C43.367 51.1667 43.2186 52.31 43.2186 53.654C43.2186 54.9805 43.367 56.1238 43.6637 57.0838C43.9605 58.0438 44.3881 58.7856 44.9466 59.3093C45.5226 59.8154 46.2208 60.0685 47.0412 60.0685ZM62.9016 58.8973C62.5239 58.4193 62.2221 57.8148 61.9961 57.0838C61.6994 56.1238 61.551 54.9805 61.551 53.654C61.551 52.31 61.6994 51.1667 61.9961 50.2242C62.2928 49.2642 62.7205 48.5311 63.279 48.0249C63.8376 47.5187 64.5183 47.2656 65.3212 47.2656C66.1416 47.2656 66.831 47.5187 67.3896 48.0249C67.9313 48.501 68.3496 49.1779 68.6443 50.0555C68.6629 50.1109 68.681 50.1671 68.6987 50.2242C68.8704 50.7697 68.9924 51.3825 69.0648 52.0626C69.1174 52.5575 69.1437 53.0879 69.1437 53.654C69.1437 54.998 68.9954 56.15 68.6987 57.11C68.4019 58.07 67.9743 58.8031 67.4157 59.3093C66.8572 59.8154 66.1765 60.0685 65.3736 60.0685C64.751 60.0685 64.1987 59.9227 63.7169 59.6312C63.5638 59.5386 63.4179 59.4313 63.279 59.3093C63.1458 59.1843 63.02 59.047 62.9016 58.8973ZM70.6141 45.8718C71.2583 46.5692 71.7893 47.4091 72.207 48.3914C72.8703 49.8925 73.2019 51.6467 73.2019 53.654C73.2019 55.6613 72.8703 57.4242 72.207 58.9427C71.5612 60.4438 70.6448 61.622 69.4579 62.4773C68.2885 63.3151 66.9183 63.734 65.3474 63.734C63.7939 63.734 62.4237 63.3151 61.2368 62.4773C61.0177 62.3203 60.8075 62.1513 60.6061 61.9705C60.3316 61.7238 60.0736 61.455 59.8321 61.164C59.3054 60.5292 58.8573 59.7888 58.4878 58.9427C57.8245 57.4242 57.4928 55.6613 57.4928 53.654C57.4928 51.6293 57.8158 49.8663 58.4616 48.3653C59.1248 46.8642 60.0412 45.6947 61.2107 44.8569C62.3976 44.0191 63.7677 43.6002 65.3212 43.6002C66.9096 43.6002 68.2885 44.0191 69.4579 44.8569C69.5022 44.8881 69.5461 44.9199 69.5896 44.9521C69.9581 45.2247 70.2996 45.5313 70.6141 45.8718ZM78.967 47.3442V47.8965V52.9725V61.8899V63.4198H83.0252V52.8456V43.9143H80.3324H79.2415H75.1707V47.3442H78.967Z" fill="#74ACFF"/>
</svg>
