<svg width="40" height="37" viewBox="0 0 40 37" fill="none" xmlns="http://www.w3.org/2000/svg">
<path d="M24.6265 13.8016C24.1174 13.8016 23.6447 13.7136 23.2083 13.5378C22.7719 13.3619 22.3901 13.1163 22.0628 12.801C21.7416 12.4796 21.4901 12.1067 21.3083 11.6823C21.1354 11.2787 21.0447 10.8422 21.0362 10.3729C21.0358 10.3486 21.0356 10.3242 21.0356 10.2997C21.0356 10.1701 21.0415 10.0431 21.0535 9.91843C21.0873 9.56478 21.1692 9.23101 21.2992 8.91714C21.481 8.49268 21.7325 8.12278 22.0537 7.80746C22.381 7.49214 22.7628 7.24656 23.1992 7.07071C23.5299 6.93744 23.8832 6.85467 24.2591 6.8224C24.3793 6.81209 24.5017 6.80693 24.6265 6.80693C25.1416 6.80693 25.6174 6.89486 26.0537 7.07071C26.4901 7.24656 26.8689 7.49214 27.1901 7.80746C27.3997 8.00945 27.5783 8.23382 27.7258 8.48059C27.8085 8.61906 27.8815 8.76458 27.9447 8.91714C28.1265 9.34161 28.2174 9.80246 28.2174 10.2997C28.2174 10.7969 28.1265 11.2578 27.9447 11.6823C27.7712 12.0872 27.5315 12.4452 27.2257 12.7564C27.211 12.7714 27.1961 12.7863 27.181 12.801C27.0875 12.8928 26.9892 12.9786 26.886 13.0586C26.6345 13.2534 26.354 13.4131 26.0447 13.5378C25.6083 13.7136 25.1356 13.8016 24.6265 13.8016ZM24.6265 12.5282C24.9356 12.5282 25.2204 12.4736 25.481 12.3644C25.6297 12.3036 25.768 12.2295 25.896 12.1423C25.9975 12.073 26.0925 11.9955 26.181 11.9096C26.2036 11.887 26.2256 11.8639 26.2471 11.8404C26.4154 11.6556 26.5479 11.4422 26.6447 11.2002C26.7537 10.9273 26.8083 10.6271 26.8083 10.2997C26.8083 9.97225 26.7537 9.67512 26.6447 9.40831C26.5356 9.13544 26.381 8.89895 26.181 8.69885C25.981 8.49874 25.7477 8.34714 25.481 8.24406C25.2204 8.13491 24.9356 8.08034 24.6265 8.08034C24.3174 8.08034 24.0295 8.13491 23.7628 8.24406C23.5022 8.34714 23.2719 8.49874 23.0719 8.69885C22.8719 8.89895 22.7174 9.13544 22.6083 9.40831C22.5247 9.61285 22.4731 9.83519 22.4536 10.0754C22.4476 10.1485 22.4447 10.2233 22.4447 10.2997C22.4447 10.3814 22.448 10.4613 22.4548 10.5396C22.4753 10.7752 22.5264 10.9954 22.6083 11.2002C22.7174 11.473 22.8719 11.7095 23.0719 11.9096C23.2719 12.1037 23.5022 12.2553 23.7628 12.3644C24.0295 12.4736 24.3174 12.5282 24.6265 12.5282Z" fill="white"/>
<path d="M24.6265 13.8016C24.1174 13.8016 23.6447 13.7136 23.2083 13.5378C22.7719 13.3619 22.3901 13.1163 22.0628 12.801C21.7416 12.4796 21.4901 12.1067 21.3083 11.6823C21.1354 11.2787 21.0447 10.8422 21.0362 10.3729C21.0358 10.3486 21.0356 10.3242 21.0356 10.2997C21.0356 10.1701 21.0415 10.0431 21.0535 9.91843C21.0873 9.56478 21.1692 9.23101 21.2992 8.91714C21.481 8.49268 21.7325 8.12278 22.0537 7.80746C22.381 7.49214 22.7628 7.24656 23.1992 7.07071C23.5299 6.93744 23.8832 6.85467 24.2591 6.8224C24.3793 6.81209 24.5017 6.80693 24.6265 6.80693C25.1416 6.80693 25.6174 6.89486 26.0537 7.07071C26.4901 7.24656 26.8689 7.49214 27.1901 7.80746C27.3997 8.00945 27.5783 8.23382 27.7258 8.48059C27.8085 8.61906 27.8815 8.76458 27.9447 8.91714C28.1265 9.34161 28.2174 9.80246 28.2174 10.2997C28.2174 10.7969 28.1265 11.2578 27.9447 11.6823C27.7712 12.0872 27.5315 12.4452 27.2257 12.7564C27.211 12.7714 27.1961 12.7863 27.181 12.801C27.0875 12.8928 26.9892 12.9786 26.886 13.0586C26.6345 13.2534 26.354 13.4131 26.0447 13.5378C25.6083 13.7136 25.1356 13.8016 24.6265 13.8016ZM24.6265 12.5282C24.9356 12.5282 25.2204 12.4736 25.481 12.3644C25.6297 12.3036 25.768 12.2295 25.896 12.1423C25.9975 12.073 26.0925 11.9955 26.181 11.9096C26.2036 11.887 26.2256 11.8639 26.2471 11.8404C26.4154 11.6556 26.5479 11.4422 26.6447 11.2002C26.7537 10.9273 26.8083 10.6271 26.8083 10.2997C26.8083 9.97225 26.7537 9.67512 26.6447 9.40831C26.5356 9.13544 26.381 8.89895 26.181 8.69885C25.981 8.49874 25.7477 8.34714 25.481 8.24406C25.2204 8.13491 24.9356 8.08034 24.6265 8.08034C24.3174 8.08034 24.0295 8.13491 23.7628 8.24406C23.5022 8.34714 23.2719 8.49874 23.0719 8.69885C22.8719 8.89895 22.7174 9.13544 22.6083 9.40831C22.5247 9.61285 22.4731 9.83519 22.4536 10.0754C22.4476 10.1485 22.4447 10.2233 22.4447 10.2997C22.4447 10.3814 22.448 10.4613 22.4548 10.5396C22.4753 10.7752 22.5264 10.9954 22.6083 11.2002C22.7174 11.473 22.8719 11.7095 23.0719 11.9096C23.2719 12.1037 23.5022 12.2553 23.7628 12.3644C24.0295 12.4736 24.3174 12.5282 24.6265 12.5282Z" fill="#74ACFF"/>
<path d="M17.8132 13.8016C17.3889 13.8016 16.9889 13.7258 16.6132 13.5742C16.2435 13.4165 15.9223 13.1952 15.6496 12.9102C15.5153 12.7667 15.3979 12.6101 15.2974 12.4404C15.2185 12.3072 15.15 12.1659 15.092 12.0166C15.0772 11.9784 15.063 11.9397 15.0496 11.9005L15.4665 11.7133L16.2041 11.3821C16.2478 11.4774 16.2958 11.5675 16.348 11.6524C16.4983 11.8968 16.6837 12.0977 16.9041 12.2553C17.2071 12.4675 17.5405 12.5736 17.9041 12.5736C18.098 12.5736 18.2647 12.5433 18.4041 12.4827C18.5435 12.422 18.6526 12.3402 18.7314 12.2371C18.8102 12.1279 18.8496 12.0006 18.8496 11.8551C18.8496 11.6974 18.8011 11.564 18.7041 11.4549C18.6071 11.3396 18.4556 11.2487 18.2496 11.182L17.6439 10.9828L17.0004 10.7711L16.9223 10.7454C16.3829 10.5695 15.9768 10.3209 15.7041 9.99954C15.4314 9.67209 15.295 9.28097 15.295 8.82619C15.295 8.42597 15.392 8.07427 15.5859 7.77108C15.7222 7.56455 15.8935 7.38898 16.1001 7.24435C16.1967 7.17666 16.3011 7.11575 16.4132 7.06161C16.6756 6.93699 16.9658 6.85811 17.2838 6.82496C17.399 6.81294 17.5179 6.80693 17.6405 6.80693C18.0465 6.80693 18.4223 6.87667 18.7677 7.01613C19.1132 7.1556 19.4102 7.35268 19.6586 7.60736C19.9132 7.86204 20.1041 8.16826 20.2314 8.52603L19.0859 9.04449C18.9586 8.72917 18.7677 8.48358 18.5132 8.30773C18.2586 8.12582 17.9677 8.03486 17.6405 8.03486C17.4526 8.03486 17.2859 8.06518 17.1405 8.12581C16.995 8.18645 16.8829 8.27438 16.8041 8.38959C16.7253 8.49874 16.6859 8.62608 16.6859 8.77161C16.6859 8.92927 16.7374 9.06874 16.8405 9.19002C16.9435 9.30523 17.098 9.39619 17.3041 9.46289L18.6041 9.88129C18.7824 9.93877 18.9458 10.0037 19.0943 10.0761C19.313 10.1827 19.4995 10.3055 19.6536 10.4445C19.715 10.4998 19.7712 10.5576 19.8223 10.6181C20.095 10.9334 20.2314 11.3184 20.2314 11.7732C20.2314 12.1674 20.1283 12.5191 19.9223 12.8283C19.7162 13.1315 19.4314 13.371 19.0677 13.5469C18.7102 13.7167 18.292 13.8016 17.8132 13.8016Z" fill="white"/>
<path d="M17.8132 13.8016C17.3889 13.8016 16.9889 13.7258 16.6132 13.5742C16.2435 13.4165 15.9223 13.1952 15.6496 12.9102C15.5153 12.7667 15.3979 12.6101 15.2974 12.4404C15.2185 12.3072 15.15 12.1659 15.092 12.0166C15.0772 11.9784 15.063 11.9397 15.0496 11.9005L15.4665 11.7133L16.2041 11.3821C16.2478 11.4774 16.2958 11.5675 16.348 11.6524C16.4983 11.8968 16.6837 12.0977 16.9041 12.2553C17.2071 12.4675 17.5405 12.5736 17.9041 12.5736C18.098 12.5736 18.2647 12.5433 18.4041 12.4827C18.5435 12.422 18.6526 12.3402 18.7314 12.2371C18.8102 12.1279 18.8496 12.0006 18.8496 11.8551C18.8496 11.6974 18.8011 11.564 18.7041 11.4549C18.6071 11.3396 18.4556 11.2487 18.2496 11.182L17.6439 10.9828L17.0004 10.7711L16.9223 10.7454C16.3829 10.5695 15.9768 10.3209 15.7041 9.99954C15.4314 9.67209 15.295 9.28097 15.295 8.82619C15.295 8.42597 15.392 8.07427 15.5859 7.77108C15.7222 7.56455 15.8935 7.38898 16.1001 7.24435C16.1967 7.17666 16.3011 7.11575 16.4132 7.06161C16.6756 6.93699 16.9658 6.85811 17.2838 6.82496C17.399 6.81294 17.5179 6.80693 17.6405 6.80693C18.0465 6.80693 18.4223 6.87667 18.7677 7.01613C19.1132 7.1556 19.4102 7.35268 19.6586 7.60736C19.9132 7.86204 20.1041 8.16826 20.2314 8.52603L19.0859 9.04449C18.9586 8.72917 18.7677 8.48358 18.5132 8.30773C18.2586 8.12582 17.9677 8.03486 17.6405 8.03486C17.4526 8.03486 17.2859 8.06518 17.1405 8.12581C16.995 8.18645 16.8829 8.27438 16.8041 8.38959C16.7253 8.49874 16.6859 8.62608 16.6859 8.77161C16.6859 8.92927 16.7374 9.06874 16.8405 9.19002C16.9435 9.30523 17.098 9.39619 17.3041 9.46289L18.6041 9.88129C18.7824 9.93877 18.9458 10.0037 19.0943 10.0761C19.313 10.1827 19.4995 10.3055 19.6536 10.4445C19.715 10.4998 19.7712 10.5576 19.8223 10.6181C20.095 10.9334 20.2314 11.3184 20.2314 11.7732C20.2314 12.1674 20.1283 12.5191 19.9223 12.8283C19.7162 13.1315 19.4314 13.371 19.0677 13.5469C18.7102 13.7167 18.292 13.8016 17.8132 13.8016Z" fill="#74ACFF"/>
<path d="M12.7395 13.6924V9.32132V8.72736V6.91608H14.1486V7.72857V8.26561V12.9553V13.6773V13.6924H14.1372H13.5759H12.7395Z" fill="white"/>
<path d="M12.7395 13.6924V9.32132V8.72736V6.91608H14.1486V7.72857V8.26561V12.9553V13.6773V13.6924H14.1372H13.5759H12.7395Z" fill="#74ACFF"/>
<path fill-rule="evenodd" clip-rule="evenodd" d="M20.264 1.05469C19.1489 1.05469 18.4454 1.59747 17.7795 2.11127C17.326 2.46122 16.8899 2.79772 16.3529 2.94015C16.3316 2.94667 16.3101 2.95289 16.2885 2.95882L16.221 2.97624C15.6663 3.11085 15.0201 3.06316 14.3492 3.01365C13.3858 2.94255 12.3714 2.8677 11.5045 3.32363C10.6622 3.76654 10.426 4.46483 10.1844 5.1789C9.99029 5.75285 9.79268 6.337 9.27415 6.80693C8.70576 7.32205 8.05628 7.60826 7.43404 7.88246C6.53471 8.27877 5.69226 8.65001 5.23374 9.6511C4.96433 10.2393 4.96052 11.9327 5.10227 13.5847C4.92546 14.1634 4.78162 14.7562 4.67289 15.361H0.726562V29.7416H9.395C9.82487 30.1895 10.0061 30.7251 10.1843 31.2521C10.4259 31.9662 10.6621 32.6644 11.5043 33.1074C12.3713 33.5633 13.3856 33.4884 14.3491 33.4173C15.0739 33.3638 15.77 33.3125 16.3528 33.4908C16.8898 33.6333 17.3259 33.9698 17.7794 34.3197C18.4453 34.8335 19.1487 35.3763 20.2639 35.3763V33.7786H20.2657V35.3763C21.3809 35.3763 22.0844 34.8335 22.7503 34.3197C23.2038 33.9698 23.6399 33.6333 24.1768 33.4908C24.7597 33.3125 25.4557 33.3638 26.1805 33.4173C27.144 33.4884 28.1584 33.5633 29.0253 33.1074C29.8676 32.6644 30.1038 31.9662 30.3453 31.2521C30.5236 30.7251 30.7048 30.1895 31.1347 29.7416H39.272V15.361H35.8596C35.7504 14.7538 35.6059 14.1588 35.4282 13.5781C35.5694 11.9281 35.5652 10.2385 35.2961 9.6511C34.8376 8.65001 33.9952 8.27877 33.0958 7.88246C32.4736 7.60826 31.8241 7.32205 31.2557 6.80693C30.7372 6.337 30.5396 5.75285 30.3454 5.1789C30.1039 4.46483 29.8677 3.76654 29.0254 3.32363C28.1585 2.8677 27.1441 2.94255 26.1807 3.01365C25.5209 3.06234 24.8849 3.10927 24.3365 2.98278C24.2962 2.9722 24.2558 2.96178 24.2153 2.95151C24.2025 2.94783 24.1897 2.94404 24.1769 2.94015C23.64 2.79772 23.2039 2.46122 22.7504 2.11127C22.0845 1.59747 21.381 1.05469 20.2658 1.05469V2.46086L20.264 2.46086V1.05469ZM34.4454 15.361C33.1454 8.79189 27.2913 3.83505 20.2662 3.83505C13.2412 3.83505 7.38712 8.79189 6.08703 15.361H7.77309H8.23911H11.9308H12.4115H28.1182H28.5989H32.2906H32.7566H34.4454ZM27.181 12.801C27.0875 12.8928 26.9892 12.9786 26.886 13.0586C26.581 12.7272 26.2499 12.4206 25.896 12.1423C25.9975 12.073 26.0925 11.9955 26.181 11.9096C26.2036 11.887 26.2256 11.8639 26.2471 11.8404C26.5959 12.1205 26.923 12.4268 27.2257 12.7564C27.211 12.7714 27.1961 12.7863 27.181 12.801ZM22.4536 10.0754C21.9984 9.98666 21.5308 9.93337 21.0535 9.91843C21.0415 10.0431 21.0356 10.1701 21.0356 10.2997C21.0356 10.3242 21.0358 10.3486 21.0362 10.3729C21.5206 10.3879 21.9946 10.4446 22.4548 10.5396C22.448 10.4613 22.4447 10.3814 22.4447 10.2997C22.4447 10.2233 22.4476 10.1485 22.4536 10.0754ZM19.0943 10.0761C19.313 10.1827 19.4995 10.3055 19.6536 10.4445C18.9523 10.5397 18.2787 10.7229 17.6439 10.9828L17.0004 10.7711C17.6574 10.4554 18.3595 10.2196 19.0943 10.0761ZM15.4665 11.7133C15.3389 11.811 15.214 11.9121 15.092 12.0166C15.15 12.1659 15.2185 12.3072 15.2974 12.4404C15.6259 12.1511 15.9771 11.8874 16.348 11.6524C16.2958 11.5675 16.2478 11.4774 16.2041 11.3821L15.4665 11.7133ZM13.5759 13.6924C13.754 13.4365 13.9453 13.1904 14.1486 12.9553V13.6773L14.1372 13.6924H13.5759ZM14.1486 7.72857C13.6561 8.02992 13.1855 8.36383 12.7395 8.72736V9.32132C13.183 8.93705 13.6538 8.58403 14.1486 8.26561V7.72857ZM16.1001 7.24435C16.4853 7.08507 16.8803 6.94489 17.2838 6.82496C16.9658 6.85811 16.6756 6.93699 16.4132 7.06161C16.3011 7.11575 16.1967 7.17666 16.1001 7.24435ZM24.2591 6.8224C25.5081 7.19261 26.6751 7.75682 27.7258 8.48059C27.5783 8.23382 27.3997 8.00945 27.1901 7.80746C26.8689 7.49214 26.4901 7.24656 26.0537 7.07071C25.6174 6.89486 25.1416 6.80693 24.6265 6.80693C24.5017 6.80693 24.3793 6.81209 24.2591 6.8224ZM11.5024 18.9174L8.7843 22.7842L8.49042 23.2023V23.267V24.6212H9.1602H9.68647H12.0904V26.3676H13.7813V24.6212H14.2091H14.8866H15.0359V23.2023H13.7813V18.236H11.9813L11.9287 18.3108L11.5024 18.9174ZM12.0904 20.3069V21.4619V23.2023H10.1358L11.8285 20.6949L12.0904 20.3069ZM15.6162 29.7416H24.9135H26.0051H28.6691C26.3015 31.4178 23.4004 32.4044 20.2662 32.4044C17.1321 32.4044 14.231 31.4178 11.8634 29.7416H14.5246H15.6162ZM4.50409 19.6658H3.90767V18.236H4.42829H5.81827H7.1804V24.1835V26.3676H5.48949V19.6658H4.50409ZM19.1825 26.4986C19.0559 26.4986 18.9323 26.4919 18.8115 26.4785C18.6064 26.4421 18.4038 26.3981 18.2041 26.3469C17.943 26.2601 17.6983 26.136 17.4698 25.9746C16.9825 25.6254 16.6007 25.1342 16.3243 24.5011C16.048 23.8681 15.9098 23.1331 15.9098 22.2963C15.9098 21.4522 16.0443 20.7173 16.3134 20.0915C16.5898 19.4657 16.9716 18.9782 17.4589 18.6289C17.9534 18.2796 18.5243 18.105 19.1716 18.105C19.8334 18.105 20.408 18.2796 20.8953 18.6289C21.3898 18.9782 21.7716 19.4694 22.0407 20.1024C22.3171 20.7282 22.4552 21.4595 22.4552 22.2963C22.4552 23.1331 22.3171 23.8681 22.0407 24.5011C21.7716 25.1269 21.3898 25.6181 20.8953 25.9746C20.408 26.3239 19.8371 26.4986 19.1825 26.4986ZM19.1934 24.9705C19.528 24.9705 19.8116 24.865 20.0443 24.6539C20.2771 24.4429 20.4552 24.1373 20.5789 23.7371C20.7025 23.3369 20.7643 22.8566 20.7643 22.2963C20.7643 21.736 20.7025 21.2594 20.5789 20.8665C20.4552 20.4663 20.2734 20.1606 20.0334 19.9496C19.8007 19.7386 19.5134 19.6331 19.1716 19.6331C18.8371 19.6331 18.5534 19.7386 18.3207 19.9496C18.088 20.1606 17.9098 20.4663 17.7862 20.8665C17.6625 21.2594 17.6007 21.736 17.6007 22.2963C17.6007 22.8493 17.6625 23.326 17.7862 23.7262C17.9098 24.1264 18.088 24.4356 18.3207 24.6539C18.5607 24.865 18.8516 24.9705 19.1934 24.9705ZM25.802 24.4822C25.6446 24.2829 25.5188 24.0309 25.4247 23.7262C25.301 23.326 25.2392 22.8493 25.2392 22.2963C25.2392 21.736 25.301 21.2594 25.4247 20.8665C25.5483 20.4663 25.7265 20.1606 25.9592 19.9496C26.1919 19.7386 26.4756 19.6331 26.8101 19.6331C27.1519 19.6331 27.4392 19.7386 27.6719 19.9496C27.8977 20.1481 28.0719 20.4303 28.1947 20.7962C28.2025 20.8193 28.21 20.8427 28.2174 20.8665C28.2889 21.0939 28.3398 21.3494 28.3699 21.6329C28.3919 21.8392 28.4028 22.0603 28.4028 22.2963C28.4028 22.8566 28.341 23.3369 28.2174 23.7371C28.0937 24.1373 27.9156 24.4429 27.6828 24.6539C27.4501 24.865 27.1665 24.9705 26.8319 24.9705C26.5725 24.9705 26.3424 24.9097 26.1416 24.7881C26.0779 24.7495 26.017 24.7048 25.9592 24.6539C25.9037 24.6019 25.8513 24.5446 25.802 24.4822ZM29.0155 19.052C29.2839 19.3428 29.5051 19.6929 29.6792 20.1024C29.9556 20.7282 30.0937 21.4595 30.0937 22.2963C30.0937 23.1331 29.9556 23.8681 29.6792 24.5011C29.4101 25.1269 29.0283 25.6181 28.5337 25.9746C28.0465 26.3239 27.4756 26.4986 26.821 26.4986C26.1737 26.4986 25.6028 26.3239 25.1083 25.9746C25.017 25.9092 24.9294 25.8388 24.8455 25.7634C24.7311 25.6605 24.6236 25.5485 24.523 25.4271C24.3035 25.1625 24.1168 24.8538 23.9628 24.5011C23.6865 23.8681 23.5483 23.1331 23.5483 22.2963C23.5483 21.4522 23.6828 20.7173 23.9519 20.0915C24.2283 19.4657 24.6101 18.9782 25.0974 18.6289C25.5919 18.2796 26.1628 18.105 26.8101 18.105C27.4719 18.105 28.0465 18.2796 28.5337 18.6289C28.5522 18.6419 28.5705 18.6552 28.5886 18.6686C28.7421 18.7822 28.8844 18.91 29.0155 19.052ZM32.4959 19.6658V19.8961V22.0122V25.7298V26.3676H34.1868V21.9593V18.236H33.0648H32.6102H30.9141V19.6658H32.4959Z" fill="white"/>
<path fill-rule="evenodd" clip-rule="evenodd" d="M20.264 1.05469C19.1489 1.05469 18.4454 1.59747 17.7795 2.11127C17.326 2.46122 16.8899 2.79772 16.3529 2.94015C16.3316 2.94667 16.3101 2.95289 16.2885 2.95882L16.221 2.97624C15.6663 3.11085 15.0201 3.06316 14.3492 3.01365C13.3858 2.94255 12.3714 2.8677 11.5045 3.32363C10.6622 3.76654 10.426 4.46483 10.1844 5.1789C9.99029 5.75285 9.79268 6.337 9.27415 6.80693C8.70576 7.32205 8.05628 7.60826 7.43404 7.88246C6.53471 8.27877 5.69226 8.65001 5.23374 9.6511C4.96433 10.2393 4.96052 11.9327 5.10227 13.5847C4.92546 14.1634 4.78162 14.7562 4.67289 15.361H0.726562V29.7416H9.395C9.82487 30.1895 10.0061 30.7251 10.1843 31.2521C10.4259 31.9662 10.6621 32.6644 11.5043 33.1074C12.3713 33.5633 13.3856 33.4884 14.3491 33.4173C15.0739 33.3638 15.77 33.3125 16.3528 33.4908C16.8898 33.6333 17.3259 33.9698 17.7794 34.3197C18.4453 34.8335 19.1487 35.3763 20.2639 35.3763V33.7786H20.2657V35.3763C21.3809 35.3763 22.0844 34.8335 22.7503 34.3197C23.2038 33.9698 23.6399 33.6333 24.1768 33.4908C24.7597 33.3125 25.4557 33.3638 26.1805 33.4173C27.144 33.4884 28.1584 33.5633 29.0253 33.1074C29.8676 32.6644 30.1038 31.9662 30.3453 31.2521C30.5236 30.7251 30.7048 30.1895 31.1347 29.7416H39.272V15.361H35.8596C35.7504 14.7538 35.6059 14.1588 35.4282 13.5781C35.5694 11.9281 35.5652 10.2385 35.2961 9.6511C34.8376 8.65001 33.9952 8.27877 33.0958 7.88246C32.4736 7.60826 31.8241 7.32205 31.2557 6.80693C30.7372 6.337 30.5396 5.75285 30.3454 5.1789C30.1039 4.46483 29.8677 3.76654 29.0254 3.32363C28.1585 2.8677 27.1441 2.94255 26.1807 3.01365C25.5209 3.06234 24.8849 3.10927 24.3365 2.98278C24.2962 2.9722 24.2558 2.96178 24.2153 2.95151C24.2025 2.94783 24.1897 2.94404 24.1769 2.94015C23.64 2.79772 23.2039 2.46122 22.7504 2.11127C22.0845 1.59747 21.381 1.05469 20.2658 1.05469V2.46086L20.264 2.46086V1.05469ZM34.4454 15.361C33.1454 8.79189 27.2913 3.83505 20.2662 3.83505C13.2412 3.83505 7.38712 8.79189 6.08703 15.361H7.77309H8.23911H11.9308H12.4115H28.1182H28.5989H32.2906H32.7566H34.4454ZM27.181 12.801C27.0875 12.8928 26.9892 12.9786 26.886 13.0586C26.581 12.7272 26.2499 12.4206 25.896 12.1423C25.9975 12.073 26.0925 11.9955 26.181 11.9096C26.2036 11.887 26.2256 11.8639 26.2471 11.8404C26.5959 12.1205 26.923 12.4268 27.2257 12.7564C27.211 12.7714 27.1961 12.7863 27.181 12.801ZM22.4536 10.0754C21.9984 9.98666 21.5308 9.93337 21.0535 9.91843C21.0415 10.0431 21.0356 10.1701 21.0356 10.2997C21.0356 10.3242 21.0358 10.3486 21.0362 10.3729C21.5206 10.3879 21.9946 10.4446 22.4548 10.5396C22.448 10.4613 22.4447 10.3814 22.4447 10.2997C22.4447 10.2233 22.4476 10.1485 22.4536 10.0754ZM19.0943 10.0761C19.313 10.1827 19.4995 10.3055 19.6536 10.4445C18.9523 10.5397 18.2787 10.7229 17.6439 10.9828L17.0004 10.7711C17.6574 10.4554 18.3595 10.2196 19.0943 10.0761ZM15.4665 11.7133C15.3389 11.811 15.214 11.9121 15.092 12.0166C15.15 12.1659 15.2185 12.3072 15.2974 12.4404C15.6259 12.1511 15.9771 11.8874 16.348 11.6524C16.2958 11.5675 16.2478 11.4774 16.2041 11.3821L15.4665 11.7133ZM13.5759 13.6924C13.754 13.4365 13.9453 13.1904 14.1486 12.9553V13.6773L14.1372 13.6924H13.5759ZM14.1486 7.72857C13.6561 8.02992 13.1855 8.36383 12.7395 8.72736V9.32132C13.183 8.93705 13.6538 8.58403 14.1486 8.26561V7.72857ZM16.1001 7.24435C16.4853 7.08507 16.8803 6.94489 17.2838 6.82496C16.9658 6.85811 16.6756 6.93699 16.4132 7.06161C16.3011 7.11575 16.1967 7.17666 16.1001 7.24435ZM24.2591 6.8224C25.5081 7.19261 26.6751 7.75682 27.7258 8.48059C27.5783 8.23382 27.3997 8.00945 27.1901 7.80746C26.8689 7.49214 26.4901 7.24656 26.0537 7.07071C25.6174 6.89486 25.1416 6.80693 24.6265 6.80693C24.5017 6.80693 24.3793 6.81209 24.2591 6.8224ZM11.5024 18.9174L8.7843 22.7842L8.49042 23.2023V23.267V24.6212H9.1602H9.68647H12.0904V26.3676H13.7813V24.6212H14.2091H14.8866H15.0359V23.2023H13.7813V18.236H11.9813L11.9287 18.3108L11.5024 18.9174ZM12.0904 20.3069V21.4619V23.2023H10.1358L11.8285 20.6949L12.0904 20.3069ZM15.6162 29.7416H24.9135H26.0051H28.6691C26.3015 31.4178 23.4004 32.4044 20.2662 32.4044C17.1321 32.4044 14.231 31.4178 11.8634 29.7416H14.5246H15.6162ZM4.50409 19.6658H3.90767V18.236H4.42829H5.81827H7.1804V24.1835V26.3676H5.48949V19.6658H4.50409ZM19.1825 26.4986C19.0559 26.4986 18.9323 26.4919 18.8115 26.4785C18.6064 26.4421 18.4038 26.3981 18.2041 26.3469C17.943 26.2601 17.6983 26.136 17.4698 25.9746C16.9825 25.6254 16.6007 25.1342 16.3243 24.5011C16.048 23.8681 15.9098 23.1331 15.9098 22.2963C15.9098 21.4522 16.0443 20.7173 16.3134 20.0915C16.5898 19.4657 16.9716 18.9782 17.4589 18.6289C17.9534 18.2796 18.5243 18.105 19.1716 18.105C19.8334 18.105 20.408 18.2796 20.8953 18.6289C21.3898 18.9782 21.7716 19.4694 22.0407 20.1024C22.3171 20.7282 22.4552 21.4595 22.4552 22.2963C22.4552 23.1331 22.3171 23.8681 22.0407 24.5011C21.7716 25.1269 21.3898 25.6181 20.8953 25.9746C20.408 26.3239 19.8371 26.4986 19.1825 26.4986ZM19.1934 24.9705C19.528 24.9705 19.8116 24.865 20.0443 24.6539C20.2771 24.4429 20.4552 24.1373 20.5789 23.7371C20.7025 23.3369 20.7643 22.8566 20.7643 22.2963C20.7643 21.736 20.7025 21.2594 20.5789 20.8665C20.4552 20.4663 20.2734 20.1606 20.0334 19.9496C19.8007 19.7386 19.5134 19.6331 19.1716 19.6331C18.8371 19.6331 18.5534 19.7386 18.3207 19.9496C18.088 20.1606 17.9098 20.4663 17.7862 20.8665C17.6625 21.2594 17.6007 21.736 17.6007 22.2963C17.6007 22.8493 17.6625 23.326 17.7862 23.7262C17.9098 24.1264 18.088 24.4356 18.3207 24.6539C18.5607 24.865 18.8516 24.9705 19.1934 24.9705ZM25.802 24.4822C25.6446 24.2829 25.5188 24.0309 25.4247 23.7262C25.301 23.326 25.2392 22.8493 25.2392 22.2963C25.2392 21.736 25.301 21.2594 25.4247 20.8665C25.5483 20.4663 25.7265 20.1606 25.9592 19.9496C26.1919 19.7386 26.4756 19.6331 26.8101 19.6331C27.1519 19.6331 27.4392 19.7386 27.6719 19.9496C27.8977 20.1481 28.0719 20.4303 28.1947 20.7962C28.2025 20.8193 28.21 20.8427 28.2174 20.8665C28.2889 21.0939 28.3398 21.3494 28.3699 21.6329C28.3919 21.8392 28.4028 22.0603 28.4028 22.2963C28.4028 22.8566 28.341 23.3369 28.2174 23.7371C28.0937 24.1373 27.9156 24.4429 27.6828 24.6539C27.4501 24.865 27.1665 24.9705 26.8319 24.9705C26.5725 24.9705 26.3424 24.9097 26.1416 24.7881C26.0779 24.7495 26.017 24.7048 25.9592 24.6539C25.9037 24.6019 25.8513 24.5446 25.802 24.4822ZM29.0155 19.052C29.2839 19.3428 29.5051 19.6929 29.6792 20.1024C29.9556 20.7282 30.0937 21.4595 30.0937 22.2963C30.0937 23.1331 29.9556 23.8681 29.6792 24.5011C29.4101 25.1269 29.0283 25.6181 28.5337 25.9746C28.0465 26.3239 27.4756 26.4986 26.821 26.4986C26.1737 26.4986 25.6028 26.3239 25.1083 25.9746C25.017 25.9092 24.9294 25.8388 24.8455 25.7634C24.7311 25.6605 24.6236 25.5485 24.523 25.4271C24.3035 25.1625 24.1168 24.8538 23.9628 24.5011C23.6865 23.8681 23.5483 23.1331 23.5483 22.2963C23.5483 21.4522 23.6828 20.7173 23.9519 20.0915C24.2283 19.4657 24.6101 18.9782 25.0974 18.6289C25.5919 18.2796 26.1628 18.105 26.8101 18.105C27.4719 18.105 28.0465 18.2796 28.5337 18.6289C28.5522 18.6419 28.5705 18.6552 28.5886 18.6686C28.7421 18.7822 28.8844 18.91 29.0155 19.052ZM32.4959 19.6658V19.8961V22.0122V25.7298V26.3676H34.1868V21.9593V18.236H33.0648H32.6102H30.9141V19.6658H32.4959Z" fill="#74ACFF"/>
</svg>
