<svg width="40" height="37" viewBox="0 0 40 37" fill="none" xmlns="http://www.w3.org/2000/svg">
<path d="M24.841 13.8016C24.3319 13.8016 23.8592 13.7136 23.4228 13.5378C22.9865 13.3619 22.6047 13.1163 22.2774 12.801C21.9562 12.4796 21.7047 12.1067 21.5228 11.6823C21.35 11.2787 21.2593 10.8422 21.2508 10.3729C21.2506 10.3646 21.2505 10.3563 21.2504 10.348C21.2502 10.3319 21.2501 10.3158 21.2501 10.2997C21.2501 10.1701 21.2561 10.0431 21.268 9.91843C21.3019 9.56478 21.3838 9.23101 21.5137 8.91714C21.6956 8.49268 21.9471 8.12278 22.2683 7.80746C22.5956 7.49214 22.9774 7.24656 23.4137 7.07071C23.7444 6.93744 24.0977 6.85467 24.4737 6.8224C24.5938 6.81209 24.7163 6.80693 24.841 6.80693C25.3562 6.80693 25.8319 6.89486 26.2683 7.07071C26.7046 7.24656 27.0834 7.49214 27.4046 7.80746C27.6143 8.00945 27.7928 8.23382 27.9403 8.48059C28.0231 8.61906 28.096 8.76458 28.1592 8.91714C28.341 9.34161 28.4319 9.80246 28.4319 10.2997C28.4319 10.7969 28.341 11.2578 28.1592 11.6823C27.9857 12.0872 27.7461 12.4452 27.4402 12.7564C27.4356 12.7611 27.4309 12.7659 27.4262 12.7706C27.4161 12.7808 27.4058 12.7909 27.3956 12.801C27.3021 12.8928 27.2037 12.9786 27.1005 13.0586C26.849 13.2534 26.5686 13.4131 26.2592 13.5378C25.8228 13.7136 25.3501 13.8016 24.841 13.8016ZM24.841 12.5282C25.1501 12.5282 25.435 12.4736 25.6956 12.3644C25.8442 12.3036 25.9826 12.2295 26.1105 12.1423C26.2121 12.073 26.3071 11.9955 26.3956 11.9096C26.4182 11.887 26.4402 11.8639 26.4616 11.8404C26.6299 11.6556 26.7624 11.4422 26.8592 11.2002C26.9683 10.9273 27.0228 10.6271 27.0228 10.2997C27.0228 9.97225 26.9683 9.67512 26.8592 9.40831C26.7501 9.13544 26.5956 8.89895 26.3956 8.69885C26.1956 8.49874 25.9622 8.34714 25.6956 8.24406C25.435 8.13491 25.1501 8.08034 24.841 8.08034C24.5319 8.08034 24.244 8.13491 23.9774 8.24406C23.7168 8.34714 23.4865 8.49874 23.2865 8.69885C23.0865 8.89895 22.9319 9.13544 22.8228 9.40831C22.7392 9.61285 22.6876 9.83519 22.6681 10.0754C22.6622 10.1485 22.6592 10.2233 22.6592 10.2997C22.6592 10.3814 22.6626 10.4613 22.6694 10.5396C22.6898 10.7752 22.7409 10.9954 22.8228 11.2002C22.9319 11.473 23.0865 11.7095 23.2865 11.9096C23.4865 12.1037 23.7168 12.2553 23.9774 12.3644C24.244 12.4736 24.5319 12.5282 24.841 12.5282Z" fill="#FFC85C"/>
<path d="M18.0277 13.8016C17.6035 13.8016 17.2035 13.7258 16.8277 13.5742C16.458 13.4165 16.1368 13.1952 15.8641 12.9102C15.7298 12.7667 15.6124 12.6101 15.512 12.4404C15.4331 12.3072 15.3646 12.1659 15.3065 12.0166C15.2917 11.9784 15.2776 11.9397 15.2641 11.9005L15.6811 11.7133L16.4186 11.3821C16.4624 11.4774 16.5103 11.5675 16.5625 11.6524C16.7128 11.8968 16.8982 12.0977 17.1186 12.2553C17.4217 12.4675 17.755 12.5736 18.1186 12.5736C18.3126 12.5736 18.4793 12.5433 18.6186 12.4827C18.758 12.422 18.8671 12.3402 18.9459 12.2371C19.0247 12.1279 19.0641 12.0006 19.0641 11.8551C19.0641 11.6974 19.0156 11.564 18.9186 11.4549C18.8217 11.3396 18.6702 11.2487 18.4641 11.182L17.8584 10.9828L17.2149 10.7711L17.1368 10.7454C16.5974 10.5695 16.1914 10.3209 15.9186 9.99954C15.6459 9.67209 15.5096 9.28097 15.5096 8.82619C15.5096 8.42597 15.6065 8.07427 15.8005 7.77108C15.9367 7.56456 16.1081 7.38898 16.3146 7.24436C16.4113 7.17666 16.5157 7.11575 16.6277 7.06161C16.8902 6.93699 17.1804 6.85811 17.4983 6.82496C17.6136 6.81294 17.7325 6.80693 17.855 6.80693C18.2611 6.80693 18.6368 6.87667 18.9823 7.01613C19.3277 7.1556 19.6247 7.35268 19.8732 7.60736C20.1277 7.86204 20.3186 8.16826 20.4459 8.52603L19.3005 9.04449C19.1732 8.72917 18.9823 8.48358 18.7277 8.30773C18.4732 8.12582 18.1823 8.03486 17.855 8.03486C17.6671 8.03486 17.5005 8.06518 17.355 8.12581C17.2096 8.18645 17.0974 8.27438 17.0186 8.38959C16.9399 8.49874 16.9005 8.62608 16.9005 8.77161C16.9005 8.92927 16.952 9.06874 17.055 9.19002C17.158 9.30523 17.3126 9.39619 17.5186 9.46289L18.8186 9.88129C18.9969 9.93877 19.1603 10.0037 19.3088 10.0761C19.5276 10.1827 19.714 10.3055 19.8682 10.4445C19.9295 10.4998 19.9857 10.5576 20.0368 10.6181C20.3096 10.9334 20.4459 11.3184 20.4459 11.7732C20.4459 12.1674 20.3429 12.5191 20.1368 12.8283C19.9308 13.1315 19.6459 13.371 19.2823 13.5469C18.9247 13.7167 18.5065 13.8016 18.0277 13.8016Z" fill="#FFC85C"/>
<path d="M12.954 13.6924V9.32132V8.72736V6.91608H14.3631V7.72857V8.26561V12.9553V13.6773V13.6924H14.3517H13.7905H12.954Z" fill="#FFC85C"/>
<path fill-rule="evenodd" clip-rule="evenodd" d="M20.2623 1.05469C19.1471 1.05469 18.4437 1.59747 17.7778 2.11127C17.3243 2.46122 16.8881 2.79772 16.3512 2.94015C16.3308 2.94639 16.3103 2.95236 16.2896 2.95805L16.2163 2.97695C15.6624 3.11068 15.0172 3.06307 14.3475 3.01365C13.384 2.94255 12.3697 2.8677 11.5027 3.32363C10.6605 3.76654 10.4243 4.46483 10.1827 5.1789C9.98857 5.75285 9.79096 6.337 9.27243 6.80693C8.70404 7.32205 8.05457 7.60826 7.43233 7.88246C6.53299 8.27877 5.69054 8.65001 5.23203 9.6511C4.96265 10.2392 4.9588 11.9323 5.10051 13.5842C4.92363 14.163 4.77973 14.756 4.67096 15.361H0.726562V29.7416H9.39349C9.82336 30.1895 10.0046 30.7251 10.1828 31.2521C10.4244 31.9662 10.6606 32.6644 11.5028 33.1074C12.3698 33.5633 13.3841 33.4884 14.3476 33.4173C15.0724 33.3638 15.7685 33.3125 16.3513 33.4908C16.8882 33.6333 17.3244 33.9698 17.7779 34.3197C18.4438 34.8335 19.1472 35.3763 20.2624 35.3763V33.7786H20.2642V35.3763C21.3794 35.3763 22.0829 34.8335 22.7487 34.3197C23.2023 33.9698 23.6384 33.6333 24.1753 33.4908C24.7582 33.3125 25.4542 33.3638 26.179 33.4173C27.1425 33.4884 28.1568 33.5633 29.0238 33.1074C29.866 32.6644 30.1023 31.9662 30.3438 31.2521C30.5221 30.7251 30.7033 30.1895 31.1332 29.7416H39.272V15.361H35.8577C35.7486 14.754 35.6041 14.1592 35.4264 13.5786C35.5676 11.9285 35.5635 10.2386 35.2944 9.6511C34.8359 8.65001 33.9935 8.27877 33.0941 7.88246C32.4719 7.60826 31.8224 7.32205 31.254 6.80693C30.7355 6.337 30.5379 5.75285 30.3437 5.1789C30.1022 4.46483 29.8659 3.76654 29.0237 3.32363C28.1567 2.8677 27.1424 2.94255 26.1789 3.01365C25.5185 3.06239 24.8819 3.10937 24.3331 2.98238C24.2939 2.9721 24.2546 2.96197 24.2152 2.95198C24.2018 2.94815 24.1885 2.94421 24.1752 2.94015C23.6383 2.79772 23.2022 2.46122 22.7486 2.11127C22.0828 1.59747 21.3793 1.05469 20.2641 1.05469V2.46086L20.2623 2.46086V1.05469ZM34.4435 15.361C33.1434 8.79189 27.2894 3.83505 20.2643 3.83505C13.2393 3.83505 7.38519 8.79189 6.08511 15.361H7.77309H8.23911H11.9308H12.4115H28.1182H28.5989H32.2906H32.7566H34.4435ZM27.3956 12.801C27.3021 12.8928 27.2037 12.9786 27.1005 13.0586C26.7956 12.7272 26.4645 12.4206 26.1105 12.1423C26.2121 12.073 26.3071 11.9955 26.3956 11.9096C26.4182 11.887 26.4402 11.8639 26.4616 11.8404C26.8104 12.1205 27.1376 12.4268 27.4402 12.7564L27.4262 12.7706C27.4161 12.7808 27.4058 12.7909 27.3956 12.801ZM22.6681 10.0754C22.213 9.98666 21.7453 9.93337 21.268 9.91843C21.2561 10.0431 21.2501 10.1701 21.2501 10.2997C21.2501 10.3158 21.2502 10.3319 21.2504 10.348C21.2505 10.3563 21.2506 10.3646 21.2508 10.3729C21.7352 10.3879 22.2092 10.4446 22.6694 10.5396C22.6626 10.4613 22.6592 10.3814 22.6592 10.2997C22.6592 10.2233 22.6622 10.1485 22.6681 10.0754ZM19.3088 10.0761C19.5276 10.1827 19.714 10.3055 19.8682 10.4445C19.1669 10.5397 18.4932 10.7229 17.8584 10.9828L17.2149 10.7711C17.872 10.4554 18.574 10.2196 19.3088 10.0761ZM14.3631 7.72857C13.8707 8.02992 13.4 8.36383 12.954 8.72736V9.32132C13.3975 8.93705 13.8683 8.58403 14.3631 8.26561V7.72857ZM16.3146 7.24436C16.6998 7.08508 17.0948 6.94489 17.4983 6.82496C17.1804 6.85811 16.8902 6.93699 16.6277 7.06161C16.5157 7.11575 16.4113 7.17666 16.3146 7.24436ZM24.4737 6.8224C25.7227 7.19261 26.8897 7.75682 27.9403 8.48059C27.7928 8.23382 27.6143 8.00945 27.4046 7.80746C27.0834 7.49214 26.7046 7.24656 26.2683 7.07071C25.8319 6.89486 25.3562 6.80693 24.841 6.80693C24.7163 6.80693 24.5938 6.81209 24.4737 6.8224ZM16.4186 11.3821C16.4624 11.4774 16.5103 11.5675 16.5625 11.6524C16.1917 11.8874 15.8405 12.1511 15.512 12.4404C15.4331 12.3072 15.3646 12.1659 15.3065 12.0166C15.4286 11.9121 15.5534 11.811 15.6811 11.7133L16.4186 11.3821ZM14.3631 12.9553C14.1598 13.1904 13.9686 13.4365 13.7905 13.6924H14.3517L14.3631 13.6773V12.9553ZM9.1602 24.6212H7.9113V25.5329V26.3676H6.2204V24.6212H5.00939H2.6204V23.2023L4.59223 20.3971L5.82538 18.6427L6.11131 18.236H7.46492H7.9113V21.5863V23.2023H8.46321H8.95735H9.16585V23.6561V24.6212H9.1602ZM14.5246 29.7416H15.6162H24.9135H26.0051H28.6672C26.2996 31.4178 23.3985 32.4044 20.2643 32.4044C17.1301 32.4044 14.229 31.4178 11.8614 29.7416H14.5246ZM4.96138 22.1719L4.26577 23.2023H5.07242H6.2204V21.4902V20.307L6.03075 20.5879L4.96138 22.1719ZM11.928 18.236H11.4735H10.8361L10.1816 22.7875L11.567 23.1149C11.6616 22.8821 11.8107 22.7111 12.0143 22.6019C12.173 22.5112 12.3495 22.4558 12.5435 22.4358C12.5984 22.4301 12.6548 22.4273 12.7125 22.4273C12.8459 22.4273 12.9704 22.4423 13.0858 22.4723C13.1906 22.4995 13.288 22.5391 13.3779 22.591C13.567 22.6929 13.7125 22.8384 13.8143 23.0276C13.9234 23.2168 13.9779 23.4387 13.9779 23.6934L13.9778 23.7178C13.975 23.921 13.9369 24.1054 13.8636 24.271C13.8487 24.3049 13.8322 24.3379 13.8143 24.3701C13.7125 24.5593 13.567 24.7085 13.3779 24.8177C13.1889 24.9195 12.967 24.9705 12.7125 24.9705C12.4143 24.9705 12.1452 24.8904 11.9052 24.7303C11.6652 24.5703 11.4907 24.3156 11.3816 23.9663L9.88704 24.4684C9.97431 24.8904 10.1598 25.2543 10.4434 25.5599C10.727 25.8582 11.0689 26.0911 11.4689 26.2584C11.8689 26.4185 12.2834 26.4986 12.7125 26.4986C13.2798 26.4986 13.7852 26.3785 14.2289 26.1384C14.5834 25.9407 14.8775 25.6872 15.1113 25.378C15.17 25.3002 15.225 25.219 15.2761 25.1342C15.3044 25.0879 15.3311 25.041 15.3562 24.9936C15.5646 24.6007 15.6689 24.1674 15.6689 23.6934C15.6689 23.1622 15.5598 22.6965 15.3416 22.2963C15.1307 21.8961 14.8289 21.5832 14.4361 21.3576C14.0434 21.1248 13.5743 21.0084 13.0289 21.0084C12.8076 21.0084 12.6063 21.0256 12.4248 21.0599C12.264 21.0904 12.1188 21.1344 11.9892 21.1919C11.9719 21.1996 11.9548 21.2076 11.938 21.2157C11.9053 21.2321 11.8732 21.2496 11.8419 21.2682L11.8907 20.8992L12.0544 19.6602L12.0535 19.6549H12.0551H15.3743V18.236H11.928ZM11.5813 19.585L11.5925 19.6549H11.5234L11.5813 19.585ZM20.0135 26.4986C19.3662 26.4986 18.7953 26.3239 18.3008 25.9746C17.8135 25.6254 17.4317 25.1342 17.1553 24.5011C16.8789 23.8681 16.7408 23.1331 16.7408 22.2963C16.7408 21.4522 16.8753 20.7173 17.1444 20.0915C17.4208 19.4657 17.8026 18.9782 18.2899 18.6289C18.7844 18.2796 19.3553 18.105 20.0026 18.105C20.6644 18.105 21.2389 18.2796 21.7262 18.6289C22.2208 18.9782 22.6026 19.4694 22.8717 20.1024C23.148 20.7282 23.2862 21.4595 23.2862 22.2963C23.2862 23.1331 23.148 23.8681 22.8717 24.5011C22.6026 25.1269 22.2208 25.6181 21.7262 25.9746C21.2389 26.3239 20.668 26.4986 20.0135 26.4986ZM20.8753 24.6539C20.6426 24.865 20.3589 24.9705 20.0244 24.9705C19.6826 24.9705 19.3917 24.865 19.1517 24.6539C18.9189 24.4356 18.7408 24.1264 18.6171 23.7262C18.4935 23.326 18.4317 22.8493 18.4317 22.2963C18.4317 21.736 18.4935 21.2594 18.6171 20.8665C18.7408 20.4663 18.9189 20.1606 19.1517 19.9496C19.3844 19.7386 19.668 19.6331 20.0026 19.6331C20.3444 19.6331 20.6317 19.7386 20.8644 19.9496C21.1044 20.1606 21.2862 20.4663 21.4099 20.8665C21.5335 21.2594 21.5953 21.736 21.5953 22.2963C21.5953 22.8566 21.5335 23.3369 21.4099 23.7371C21.2862 24.1373 21.108 24.4429 20.8753 24.6539ZM26.2556 23.7262C26.2805 23.8069 26.3077 23.8839 26.3371 23.9572C26.4009 24.1165 26.4752 24.2584 26.56 24.3827C26.6296 24.4849 26.7064 24.5753 26.7902 24.6539C27.0302 24.865 27.3211 24.9705 27.6629 24.9705C27.9974 24.9705 28.2811 24.865 28.5138 24.6539C28.7465 24.4429 28.9247 24.1373 29.0483 23.7371C29.172 23.3369 29.2338 22.8566 29.2338 22.2963C29.2338 21.736 29.172 21.2594 29.0483 20.8665C28.983 20.655 28.9014 20.4699 28.8036 20.3113C28.7163 20.1697 28.6161 20.0491 28.5029 19.9496C28.4798 19.9287 28.4561 19.9087 28.4319 19.8899C28.2126 19.7187 27.9489 19.6331 27.6411 19.6331C27.3065 19.6331 27.0229 19.7386 26.7902 19.9496C26.5574 20.1606 26.3793 20.4663 26.2556 20.8665C26.132 21.2594 26.0702 21.736 26.0702 22.2963C26.0702 22.8493 26.132 23.326 26.2556 23.7262ZM29.3647 18.6289C29.2645 18.5571 29.1606 18.4927 29.0531 18.4356C28.9092 18.3593 28.7587 18.2962 28.6016 18.2463C28.305 18.1521 27.9848 18.105 27.6411 18.105C26.9938 18.105 26.4229 18.2796 25.9283 18.6289C25.4411 18.9782 25.0593 19.4657 24.7829 20.0915C24.5138 20.7173 24.3793 21.4522 24.3793 22.2963C24.3793 23.1331 24.5174 23.8681 24.7938 24.5011C24.8808 24.7005 24.9783 24.8857 25.0862 25.057C25.1689 25.1881 25.2577 25.311 25.3527 25.4256C25.5274 25.6366 25.7229 25.8196 25.9393 25.9746C26.4338 26.3239 27.0047 26.4986 27.652 26.4986C28.3065 26.4986 28.8774 26.3239 29.3647 25.9746C29.8592 25.6181 30.2411 25.1269 30.5102 24.5011C30.7865 23.8681 30.9247 23.1331 30.9247 22.2963C30.9247 21.4595 30.7865 20.7282 30.5102 20.1024C30.2411 19.4694 29.8592 18.9782 29.3647 18.6289ZM32.5249 19.6658H31.745V18.236H32.6102H33.0648H34.7123H35.0177V26.3676H33.3268V24.2324V19.6658H32.9824H32.5249Z" fill="#FFC85C"/>
</svg>
