<svg width="97" height="88" viewBox="0 0 97 88" fill="none" xmlns="http://www.w3.org/2000/svg">
<path d="M60.5954 33.2774C59.3736 33.2774 58.239 33.0665 57.1918 32.6447C56.1445 32.2229 55.2281 31.6338 54.4427 30.8774C53.6717 30.1065 53.0681 29.2119 52.6318 28.1938C52.2169 27.2257 51.9992 26.1788 51.9788 25.053C51.9784 25.0331 51.9781 25.0132 51.9779 24.9933C51.9774 24.9548 51.9772 24.9161 51.9772 24.8774C51.9772 24.5666 51.9915 24.2618 52.0202 23.9629C52.1014 23.1145 52.298 22.3139 52.6099 21.561C53.0463 20.5429 53.6499 19.6556 54.4208 18.8992C55.2063 18.1429 56.1227 17.5538 57.1699 17.1319C57.9636 16.8123 58.8115 16.6137 59.7138 16.5363C60.0021 16.5116 60.296 16.4992 60.5954 16.4992C61.8317 16.4992 62.9736 16.7101 64.0208 17.1319C65.0681 17.5538 65.9772 18.1429 66.7481 18.8992C67.2513 19.3837 67.6798 19.9219 68.0337 20.5139C68.2323 20.846 68.4074 21.1951 68.559 21.561C68.9954 22.5792 69.2136 23.6847 69.2136 24.8774C69.2136 26.0701 68.9954 27.1756 68.559 28.1938C68.1427 29.1651 67.5676 30.024 66.8335 30.7703C66.8223 30.7817 66.8111 30.793 66.7998 30.8044C66.7755 30.8288 66.751 30.8532 66.7263 30.8774C66.502 31.0975 66.2659 31.3035 66.0182 31.4952C65.4146 31.9625 64.7415 32.3456 63.999 32.6447C62.9517 33.0665 61.8172 33.2774 60.5954 33.2774ZM60.5954 30.2229C61.3372 30.2229 62.0208 30.092 62.6463 29.8301C63.0031 29.6842 63.3351 29.5065 63.6422 29.2972C63.8859 29.1311 64.1139 28.9451 64.3263 28.7392C64.3805 28.685 64.4334 28.6296 64.4849 28.5731C64.8887 28.1299 65.2068 27.618 65.439 27.0374C65.7008 26.3829 65.8317 25.6629 65.8317 24.8774C65.8317 24.0919 65.7008 23.3792 65.439 22.7392C65.1772 22.0847 64.8063 21.5174 64.3263 21.0374C63.8463 20.5574 63.2863 20.1938 62.6463 19.9465C62.0208 19.6847 61.3372 19.5538 60.5954 19.5538C59.8536 19.5538 59.1627 19.6847 58.5227 19.9465C57.8972 20.1938 57.3445 20.5574 56.8645 21.0374C56.3845 21.5174 56.0136 22.0847 55.7518 22.7392C55.551 23.2298 55.4273 23.7632 55.3804 24.3393C55.3662 24.5147 55.359 24.6941 55.359 24.8774C55.359 25.0733 55.3672 25.2651 55.3834 25.4529C55.4325 26.0179 55.5552 26.5461 55.7518 27.0374C56.0136 27.6919 56.3845 28.2592 56.8645 28.7392C57.3445 29.2047 57.8972 29.5683 58.5227 29.8301C59.1627 30.092 59.8536 30.2229 60.5954 30.2229Z" fill="#FFC85C"/>
<path d="M44.2435 33.2774C43.2253 33.2774 42.2653 33.0956 41.3635 32.732C40.4762 32.3538 39.7053 31.8229 39.0508 31.1392C38.7285 30.795 38.4468 30.4193 38.2056 30.0124C38.0163 29.6928 37.852 29.3539 37.7127 28.9957C37.6771 28.9042 37.6431 28.8114 37.6108 28.7174L38.6115 28.2683L40.3817 27.4738C40.4867 27.7024 40.6018 27.9185 40.727 28.1221C41.0878 28.7083 41.5327 29.1904 42.0617 29.5683C42.789 30.0774 43.589 30.332 44.4617 30.332C44.9272 30.332 45.3272 30.2592 45.6617 30.1138C45.9962 29.9683 46.2581 29.772 46.4472 29.5247C46.6362 29.2629 46.7308 28.9574 46.7308 28.6083C46.7308 28.2301 46.6144 27.9101 46.3817 27.6483C46.149 27.372 45.7853 27.1538 45.2908 26.9938L43.8372 26.5159L42.2928 26.0081L42.1053 25.9465C40.8108 25.5247 39.8362 24.9283 39.1817 24.1574C38.5272 23.3719 38.1999 22.4338 38.1999 21.3429C38.1999 20.3829 38.4326 19.5392 38.8981 18.8119C39.225 18.3166 39.6363 17.8954 40.132 17.5485C40.364 17.3861 40.6145 17.24 40.8835 17.1101C41.5134 16.8112 42.2099 16.622 42.9729 16.5425C43.2495 16.5136 43.5349 16.4992 43.829 16.4992C44.8035 16.4992 45.7053 16.6665 46.5344 17.001C47.3635 17.3356 48.0762 17.8083 48.6726 18.4192C49.2835 19.0301 49.7417 19.7647 50.0472 20.6229L47.2981 21.8665C46.9926 21.1101 46.5344 20.521 45.9235 20.0992C45.3126 19.6629 44.6144 19.4447 43.829 19.4447C43.3781 19.4447 42.9781 19.5174 42.629 19.6629C42.2799 19.8083 42.0108 20.0192 41.8217 20.2956C41.6326 20.5574 41.5381 20.8629 41.5381 21.2119C41.5381 21.5901 41.6617 21.9247 41.909 22.2156C42.1562 22.4919 42.5272 22.7101 43.0217 22.8701L46.1417 23.8738C46.5696 24.0116 46.9617 24.1674 47.3181 24.341C47.8432 24.5968 48.2906 24.8913 48.6605 25.2246C48.8078 25.3573 48.9427 25.4961 49.0653 25.641C49.7199 26.3974 50.0472 27.321 50.0472 28.4119C50.0472 29.3574 49.7999 30.201 49.3053 30.9429C48.8108 31.6701 48.1272 32.2447 47.2544 32.6665C46.3962 33.0738 45.3926 33.2774 44.2435 33.2774Z" fill="#FFC85C"/>
<path d="M32.0666 33.0156V22.5305V21.1058V16.761H35.4484V18.71V19.9982V31.2475V32.9794V33.0156H35.4211H34.0741H32.0666Z" fill="#FFC85C"/>
<path fill-rule="evenodd" clip-rule="evenodd" d="M49.6066 2.70117C46.9301 2.70117 45.2418 4.00315 43.6437 5.23562C42.5552 6.07505 41.5085 6.88224 40.2199 7.22386C40.1709 7.23885 40.1216 7.25316 40.0719 7.26681L39.8962 7.31214C38.5666 7.63293 37.0183 7.51874 35.411 7.40019C33.0986 7.22965 30.6642 7.0501 28.5835 8.14373C26.5622 9.20617 25.9952 10.8812 25.4155 12.594C24.9495 13.9708 24.4753 15.372 23.2308 16.4992C21.8667 17.7348 20.3079 18.4214 18.8145 19.0791C16.6561 20.0298 14.6343 20.9203 13.5338 23.3216C12.8873 24.7324 12.8781 28.7936 13.2182 32.756C12.7937 34.1444 12.4483 35.5668 12.1873 37.018H2.7207V71.5131H23.5213C24.553 72.5875 24.9879 73.8723 25.4157 75.1364C25.9955 76.8493 26.5624 78.5243 28.5838 79.5867C30.6645 80.6803 33.0989 80.5008 35.4112 80.3302C37.1508 80.2019 38.8213 80.0787 40.2201 80.5066C41.5087 80.8482 42.5554 81.6554 43.6439 82.4948C45.2421 83.7273 46.9303 85.0293 49.6068 85.0293V81.1969H49.6111V85.0293C52.2875 85.0293 53.9758 83.7273 55.5739 82.4948C56.6624 81.6554 57.7091 80.8482 58.9977 80.5066C60.3965 80.0787 62.0671 80.2019 63.8066 80.3302C66.119 80.5008 68.5534 80.6803 70.6341 79.5867C72.6554 78.5243 73.2224 76.8493 73.8021 75.1364C74.23 73.8723 74.6648 72.5875 75.6965 71.5131H95.2298V37.018H87.0354C86.7735 35.5621 86.4267 34.1353 86.0004 32.7426C86.3393 28.7844 86.3293 24.7308 85.6836 23.3216C84.5831 20.9203 82.5613 20.0298 80.4028 19.0791C78.9095 18.4214 77.3507 17.7349 75.9866 16.4992C74.7421 15.372 74.2679 13.9708 73.8019 12.594C73.2221 10.8812 72.6552 9.20617 70.6339 8.14373C68.5531 7.0501 66.1187 7.22965 63.8064 7.40019C62.2212 7.5171 60.6935 7.62978 59.3763 7.32516C59.2822 7.30052 59.1879 7.27621 59.0935 7.25226C59.0614 7.24308 59.0294 7.23361 58.9975 7.22386C57.7089 6.88224 56.6622 6.07505 55.5737 5.23562C53.9756 4.00315 52.2873 2.70117 49.6108 2.70117V6.0742L49.6066 6.0742V2.70117ZM83.6414 37.018C80.5212 21.2606 66.4715 9.37048 49.6113 9.37048C32.7512 9.37048 18.7014 21.2606 15.5812 37.018H19.6324H20.7508H29.6109H30.7645H68.4607H69.6143H78.4743H79.5928H83.6414ZM66.7263 30.8774C66.502 31.0975 66.2659 31.3035 66.0182 31.4952C65.2863 30.7003 64.4917 29.9649 63.6422 29.2972C63.8859 29.1311 64.1139 28.9451 64.3263 28.7392C64.3805 28.685 64.4334 28.6296 64.4849 28.5731C65.3219 29.2451 66.1071 29.9798 66.8335 30.7703L66.7998 30.8044C66.7755 30.8288 66.751 30.8532 66.7263 30.8774ZM55.3804 24.3393C54.2881 24.1265 53.1657 23.9987 52.0202 23.9629C51.9915 24.2618 51.9772 24.5666 51.9772 24.8774C51.9772 24.9161 51.9774 24.9548 51.9779 24.9933C51.9781 25.0132 51.9784 25.0331 51.9788 25.053C53.1414 25.089 54.279 25.225 55.3834 25.4529C55.3672 25.2651 55.359 25.0733 55.359 24.8774C55.359 24.6941 55.3662 24.5147 55.3804 24.3393ZM47.3181 24.341C47.8432 24.5968 48.2906 24.8913 48.6605 25.2246C46.9774 25.453 45.3606 25.8926 43.8372 26.5159L42.2928 26.0081C43.8696 25.251 45.5546 24.6853 47.3181 24.341ZM35.4484 18.71C34.2666 19.4328 33.137 20.2338 32.0666 21.1058V22.5305C33.131 21.6088 34.261 20.762 35.4484 19.9982V18.71ZM40.132 17.5485C41.0566 17.1664 42.0045 16.8301 42.9729 16.5425C42.2099 16.622 41.5134 16.8112 40.8835 17.1101C40.6145 17.24 40.364 17.3861 40.132 17.5485ZM59.7138 16.5363C62.7114 17.4243 65.5121 18.7777 68.0337 20.5139C67.6798 19.9219 67.2513 19.3837 66.7481 18.8992C65.9772 18.1429 65.0681 17.5538 64.0208 17.1319C62.9736 16.7101 61.8317 16.4992 60.5954 16.4992C60.296 16.4992 60.0021 16.5116 59.7138 16.5363ZM40.3817 27.4738C40.4867 27.7024 40.6018 27.9185 40.727 28.1221C39.837 28.6859 38.9941 29.3185 38.2056 30.0124C38.0163 29.6928 37.852 29.3539 37.7127 28.9957C38.0055 28.7452 38.3052 28.5026 38.6115 28.2683L40.3817 27.4738ZM35.4484 31.2475C34.9605 31.8115 34.5016 32.4016 34.0741 33.0156H35.4211L35.4484 32.9794V31.2475ZM22.9614 59.2307H19.9641V61.4176V63.4198H15.9059V59.2307H12.9995H7.26591V55.8271L11.9983 49.0982L14.9579 44.8901L15.6441 43.9143H18.8927H19.9641V51.9508V55.8271H21.2887H22.4746H22.975V56.9157V59.2307H22.9614ZM35.836 71.5131H38.4558H60.7694H63.3892H69.7782C64.096 75.534 57.1333 77.9006 49.6113 77.9006C42.0893 77.9006 35.1267 75.534 29.4444 71.5131H35.836ZM12.8843 53.3555L11.2148 55.8271H13.1508H15.9059V51.7204V48.882L15.4508 49.5559L12.8843 53.3555ZM29.6042 43.9143H28.5133H26.9837L25.4128 54.8322L28.7379 55.6176C28.9648 55.0591 29.3226 54.6489 29.8113 54.3871C30.1923 54.1694 30.6156 54.0365 31.0814 53.9885C31.2132 53.975 31.3484 53.9682 31.4869 53.9682C31.8072 53.9682 32.1059 54.0042 32.383 54.0761C32.6344 54.1414 32.8681 54.2363 33.084 54.3609C33.5378 54.6053 33.8869 54.9544 34.1313 55.4082C34.3931 55.862 34.524 56.3944 34.524 57.0053L34.5236 57.0638C34.5169 57.5512 34.4256 57.9935 34.2497 58.3908C34.2137 58.4719 34.1743 58.5512 34.1313 58.6285C33.8869 59.0824 33.5378 59.4402 33.084 59.702C32.6302 59.9464 32.0979 60.0685 31.4869 60.0685C30.7713 60.0685 30.1255 59.8765 29.5495 59.4925C28.9735 59.1085 28.5546 58.4976 28.2928 57.6598L24.7059 58.8642C24.9153 59.8765 25.3604 60.7493 26.0411 61.4824C26.7219 62.198 27.5422 62.7565 28.5022 63.158C29.4622 63.542 30.4571 63.734 31.4869 63.734C32.8484 63.734 34.0615 63.446 35.1262 62.87C35.977 62.3958 36.683 61.7878 37.244 61.046C37.3851 60.8596 37.5169 60.6646 37.6397 60.4613C37.7074 60.3503 37.7715 60.2378 37.8319 60.124C38.3321 59.1817 38.5822 58.1421 38.5822 57.0053C38.5822 55.7311 38.3204 54.614 37.7968 53.654C37.2906 52.694 36.5662 51.9434 35.6237 51.4024C34.6811 50.8438 33.5553 50.5645 32.2462 50.5645C31.7152 50.5645 31.232 50.6058 30.7965 50.6883C30.4105 50.7614 30.062 50.8669 29.7511 51.0048C29.7094 51.0233 29.6684 51.0423 29.628 51.062C29.5496 51.1012 29.4727 51.1431 29.3975 51.1877L29.5145 50.3027L29.9076 47.3307L29.9054 47.318H29.9093H37.8753V43.9143H29.6042ZM28.772 47.1504L28.7989 47.318H28.6331L28.772 47.1504ZM49.0093 63.734C47.4559 63.734 46.0857 63.3151 44.8988 62.4773C43.7293 61.6394 42.813 60.4613 42.1497 58.9427C41.4864 57.4242 41.1548 55.6613 41.1548 53.654C41.1548 51.6293 41.4777 49.8663 42.1235 48.3653C42.7868 46.8642 43.7031 45.6947 44.8726 44.8569C46.0595 44.0191 47.4297 43.6002 48.9831 43.6002C50.5715 43.6002 51.9504 44.0191 53.1199 44.8569C54.3068 45.6947 55.2231 46.8729 55.869 48.3914C56.5322 49.8925 56.8639 51.6467 56.8639 53.654C56.8639 55.6613 56.5322 57.4242 55.869 58.9427C55.2231 60.4438 54.3068 61.622 53.1199 62.4773C51.9504 63.3151 50.5802 63.734 49.0093 63.734ZM51.0777 59.3093C50.5191 59.8154 49.8384 60.0685 49.0355 60.0685C48.2151 60.0685 47.517 59.8154 46.941 59.3093C46.3824 58.7856 45.9548 58.0438 45.6581 57.0838C45.3613 56.1238 45.213 54.9805 45.213 53.654C45.213 52.31 45.3613 51.1667 45.6581 50.2242C45.9548 49.2642 46.3824 48.5311 46.941 48.0249C47.4995 47.5187 48.1802 47.2656 48.9831 47.2656C49.8035 47.2656 50.493 47.5187 51.0515 48.0249C51.6275 48.5311 52.0639 49.2642 52.3606 50.2242C52.6573 51.1667 52.8057 52.31 52.8057 53.654C52.8057 54.998 52.6573 56.15 52.3606 57.11C52.0639 58.07 51.6362 58.8031 51.0777 59.3093ZM63.9904 57.0838C64.0503 57.2774 64.1154 57.4621 64.1859 57.638C64.3391 58.0201 64.5174 58.3604 64.7209 58.6587C64.8881 58.9039 65.0722 59.1207 65.2733 59.3093C65.8493 59.8154 66.5475 60.0685 67.3679 60.0685C68.1708 60.0685 68.8515 59.8154 69.4101 59.3093C69.9686 58.8031 70.3962 58.07 70.693 57.11C70.9897 56.15 71.1381 54.998 71.1381 53.654C71.1381 52.31 70.9897 51.1667 70.693 50.2242C70.5362 49.7169 70.3404 49.273 70.1056 48.8924C69.8961 48.5528 69.6555 48.2636 69.3839 48.0249C69.3284 47.9746 69.2716 47.9268 69.2136 47.8816C68.6871 47.4709 68.0544 47.2656 67.3155 47.2656C66.5126 47.2656 65.8319 47.5187 65.2733 48.0249C64.7148 48.5311 64.2872 49.2642 63.9904 50.2242C63.6937 51.1667 63.5453 52.31 63.5453 53.654C63.5453 54.9805 63.6937 56.1238 63.9904 57.0838ZM71.4522 44.8569C71.2118 44.6846 70.9625 44.5301 70.7043 44.3932C70.359 44.2102 69.9978 44.0588 69.6208 43.9391C68.9089 43.7132 68.1404 43.6002 67.3155 43.6002C65.7621 43.6002 64.3919 44.0191 63.205 44.8569C62.0355 45.6947 61.1192 46.8642 60.4559 48.3653C59.8101 49.8663 59.4872 51.6293 59.4872 53.654C59.4872 55.6613 59.8188 57.4242 60.4821 58.9427C60.6909 59.4209 60.9249 59.8653 61.1839 60.276C61.3823 60.5905 61.5955 60.8853 61.8233 61.1603C62.2427 61.6663 62.712 62.1053 63.2312 62.4773C64.4181 63.3151 65.7882 63.734 67.3417 63.734C68.9126 63.734 70.2828 63.3151 71.4522 62.4773C72.6391 61.622 73.5555 60.4438 74.2013 58.9427C74.8646 57.4242 75.1962 55.6613 75.1962 53.654C75.1962 51.6467 74.8646 49.8925 74.2013 48.3914C73.5555 46.8729 72.6391 45.6947 71.4522 44.8569ZM79.0367 47.3442H77.165V43.9143H79.2415H80.3324H84.2864H85.0195V63.4198H80.9613V58.2981V47.3442H80.1348H79.0367Z" fill="#FFC85C"/>
</svg>
