<svg width="40" height="37" viewBox="0 0 40 37" fill="none" xmlns="http://www.w3.org/2000/svg">
<path d="M24.5277 13.9205C24.0186 13.9205 23.5459 13.8326 23.1095 13.6567C22.6731 13.4809 22.2913 13.2353 21.964 12.92C21.6428 12.5986 21.3913 12.2257 21.2095 11.8012C21.0366 11.3976 20.9459 10.9612 20.9374 10.4919C20.937 10.4675 20.9368 10.4431 20.9368 10.4186C20.9368 10.2891 20.9427 10.162 20.9547 10.0374C20.9885 9.68373 21.0704 9.34996 21.2004 9.03609C21.3822 8.61162 21.6337 8.24173 21.955 7.92641C22.2822 7.61109 22.664 7.36551 23.1004 7.18966C23.4311 7.05639 23.7844 6.97362 24.1603 6.94135C24.2805 6.93104 24.4029 6.92588 24.5277 6.92588C25.0428 6.92588 25.5186 7.0138 25.955 7.18966C26.3913 7.36551 26.7701 7.61109 27.0913 7.92641C27.301 8.1284 27.4795 8.35277 27.627 8.59954C27.7097 8.73801 27.7827 8.88353 27.8459 9.03609C28.0277 9.46056 28.1186 9.92141 28.1186 10.4186C28.1186 10.9159 28.0277 11.3767 27.8459 11.8012C27.6724 12.2062 27.4327 12.5642 27.1269 12.8753C27.1122 12.8903 27.0973 12.9052 27.0822 12.92C26.9888 13.0117 26.8904 13.0976 26.7872 13.1775C26.5357 13.3723 26.2552 13.5321 25.9459 13.6567C25.5095 13.8326 25.0368 13.9205 24.5277 13.9205ZM24.5277 12.6471C24.8368 12.6471 25.1216 12.5925 25.3822 12.4834C25.5309 12.4225 25.6692 12.3485 25.7972 12.2612C25.8987 12.192 25.9937 12.1144 26.0822 12.0286C26.1048 12.006 26.1269 11.9829 26.1483 11.9594C26.3166 11.7746 26.4491 11.5612 26.5459 11.3191C26.655 11.0463 26.7095 10.7461 26.7095 10.4186C26.7095 10.0912 26.655 9.79407 26.5459 9.52726C26.4368 9.25439 26.2822 9.0179 26.0822 8.81779C25.8822 8.61769 25.6489 8.46609 25.3822 8.36301C25.1216 8.25386 24.8368 8.19928 24.5277 8.19928C24.2186 8.19928 23.9307 8.25386 23.664 8.36301C23.4034 8.46609 23.1731 8.61769 22.9731 8.81779C22.7731 9.0179 22.6186 9.25439 22.5095 9.52726C22.4259 9.73179 22.3743 9.95414 22.3548 10.1943C22.3488 10.2674 22.3459 10.3422 22.3459 10.4186C22.3459 10.5003 22.3493 10.5803 22.356 10.6585C22.3765 10.8941 22.4276 11.1143 22.5095 11.3191C22.6186 11.592 22.7731 11.8285 22.9731 12.0286C23.1731 12.2226 23.4034 12.3742 23.664 12.4834C23.9307 12.5925 24.2186 12.6471 24.5277 12.6471Z" fill="#FF6B6B"/>
<path d="M17.7144 13.9205C17.2902 13.9205 16.8902 13.8447 16.5144 13.6931C16.1447 13.5355 15.8235 13.3141 15.5508 13.0291C15.4165 12.8856 15.2991 12.729 15.1986 12.5594C15.1197 12.4261 15.0512 12.2848 14.9932 12.1355C14.9784 12.0974 14.9642 12.0587 14.9508 12.0195L15.3677 11.8323L16.1053 11.501C16.149 11.5964 16.197 11.6865 16.2492 11.7713C16.3995 12.0157 16.5849 12.2167 16.8053 12.3742C17.1083 12.5865 17.4417 12.6926 17.8053 12.6926C17.9992 12.6926 18.1659 12.6623 18.3053 12.6016C18.4447 12.541 18.5538 12.4591 18.6326 12.356C18.7114 12.2469 18.7508 12.1196 18.7508 11.974C18.7508 11.8164 18.7023 11.683 18.6053 11.5738C18.5083 11.4586 18.3568 11.3676 18.1508 11.3009L17.5451 11.1017L16.9016 10.89L16.8235 10.8643C16.2841 10.6885 15.878 10.4399 15.6053 10.1185C15.3326 9.79104 15.1962 9.39992 15.1962 8.94514C15.1962 8.54492 15.2932 8.19322 15.4871 7.89003C15.6234 7.6835 15.7947 7.50793 16.0013 7.3633C16.0979 7.29561 16.2023 7.23469 16.3144 7.18056C16.5768 7.05594 16.867 6.97706 17.185 6.9439C17.3002 6.93189 17.4191 6.92588 17.5417 6.92588C17.9477 6.92588 18.3235 6.99561 18.6689 7.13508C19.0144 7.27455 19.3114 7.47162 19.5599 7.7263C19.8144 7.98099 20.0053 8.28721 20.1326 8.64497L18.9871 9.16343C18.8599 8.84811 18.6689 8.60253 18.4144 8.42668C18.1599 8.24476 17.8689 8.15381 17.5417 8.15381C17.3538 8.15381 17.1871 8.18412 17.0417 8.24476C16.8962 8.3054 16.7841 8.39333 16.7053 8.50854C16.6265 8.61769 16.5871 8.74503 16.5871 8.89056C16.5871 9.04822 16.6386 9.18769 16.7417 9.30896C16.8447 9.42418 16.9992 9.51514 17.2053 9.58184L18.5053 10.0002C18.6836 10.0577 18.847 10.1226 18.9955 10.195C19.2142 10.3016 19.4007 10.4244 19.5548 10.5634C19.6162 10.6187 19.6724 10.6766 19.7235 10.737C19.9962 11.0523 20.1326 11.4374 20.1326 11.8922C20.1326 12.2863 20.0295 12.638 19.8235 12.9473C19.6174 13.2505 19.3326 13.49 18.9689 13.6658C18.6114 13.8356 18.1932 13.9205 17.7144 13.9205Z" fill="#FF6B6B"/>
<path d="M12.6407 13.8114V9.44027V8.84631V7.03503H14.0498V7.84752V8.38456V13.0743V13.7963V13.8114H14.0384H13.4771H12.6407Z" fill="#FF6B6B"/>
<path fill-rule="evenodd" clip-rule="evenodd" d="M20.2637 1.05469C19.1486 1.05469 18.4451 1.59746 17.7792 2.11127C17.3257 2.46122 16.8896 2.79772 16.3526 2.94014C16.329 2.94738 16.3051 2.95424 16.2811 2.96074L16.2277 2.97452C15.6715 3.11125 15.0226 3.06337 14.3489 3.01365C13.3854 2.94255 12.3711 2.8677 11.5041 3.32362C10.6619 3.76654 10.4257 4.46482 10.1841 5.17889C9.98998 5.75284 9.79237 6.33699 9.27384 6.80692C8.70545 7.32204 8.05598 7.60824 7.43374 7.88245C6.5344 8.27876 5.69195 8.65 5.23344 9.65108C4.96396 10.2394 4.96021 11.9334 5.10206 13.5858C4.92541 14.1641 4.78168 14.7566 4.67301 15.361H0.726562V29.7416H9.39482C9.82468 30.1895 10.0059 30.7251 10.1841 31.2521C10.4257 31.9662 10.6619 32.6644 11.5041 33.1074C12.3711 33.5633 13.3854 33.4884 14.3489 33.4173C15.0738 33.3639 15.7698 33.3125 16.3526 33.4908C16.8896 33.6333 17.3257 33.9698 17.7792 34.3197C18.4451 34.8335 19.1486 35.3763 20.2637 35.3763V33.7786H20.2655V35.3763C21.3807 35.3763 22.0842 34.8335 22.7501 34.3197C23.2036 33.9698 23.6397 33.6333 24.1766 33.4908C24.7595 33.3125 25.4555 33.3639 26.1804 33.4173C27.1438 33.4884 28.1582 33.5633 29.0251 33.1074C29.8674 32.6644 30.1036 31.9662 30.3451 31.2521C30.5234 30.7251 30.7046 30.1895 31.1345 29.7416H39.272V15.361H35.8598C35.7505 14.7535 35.6059 14.1581 35.428 13.5769C35.5691 11.9273 35.5648 10.2384 35.2958 9.65108C34.8373 8.65 33.9949 8.27876 33.0955 7.88245C32.4733 7.60824 31.8238 7.32204 31.2554 6.80692C30.7369 6.33699 30.5393 5.75284 30.3451 5.17889C30.1036 4.46482 29.8674 3.76654 29.0251 3.32362C28.1582 2.8677 27.1438 2.94255 26.1804 3.01365C25.522 3.06223 24.8874 3.10906 24.3398 2.98361C24.2972 2.97241 24.2545 2.96139 24.2117 2.95054L24.1766 2.94014C23.6397 2.79772 23.2036 2.46122 22.7501 2.11127C22.0842 1.59747 21.3807 1.05469 20.2655 1.05469V2.46086L20.2637 2.46086V1.05469ZM34.4456 15.361C33.1455 8.79191 27.2915 3.83504 20.2664 3.83504C13.2413 3.83504 7.38722 8.79191 6.08716 15.361H7.77343H8.23945H11.9311H12.4118H28.1186H28.5993H32.2909H32.757H34.4456ZM27.0822 12.92C26.9888 13.0117 26.8904 13.0976 26.7872 13.1775C26.4822 12.8461 26.1511 12.5396 25.7972 12.2612C25.8987 12.192 25.9937 12.1144 26.0822 12.0286C26.1048 12.006 26.1269 11.9829 26.1483 11.9594C26.4971 12.2395 26.8242 12.5458 27.1269 12.8753C27.1122 12.8903 27.0973 12.9052 27.0822 12.92ZM22.3548 10.1943C21.8997 10.1056 21.432 10.0523 20.9547 10.0374C20.9427 10.162 20.9368 10.2891 20.9368 10.4186C20.9368 10.4431 20.937 10.4675 20.9374 10.4919C21.4218 10.5069 21.8958 10.5636 22.356 10.6585C22.3493 10.5803 22.3459 10.5003 22.3459 10.4186C22.3459 10.3422 22.3488 10.2674 22.3548 10.1943ZM18.9955 10.195C19.2142 10.3016 19.4007 10.4244 19.5548 10.5634C18.8535 10.6586 18.1799 10.8419 17.5451 11.1017L16.9016 10.89C17.5586 10.5744 18.2607 10.3386 18.9955 10.195ZM14.0498 7.84752C13.5573 8.14887 13.0867 8.48278 12.6407 8.84631V9.44027C13.0842 9.056 13.555 8.70298 14.0498 8.38456V7.84752ZM16.0013 7.3633C16.3865 7.20402 16.7815 7.06384 17.185 6.9439C16.867 6.97706 16.5768 7.05594 16.3144 7.18056C16.2023 7.23469 16.0979 7.29561 16.0013 7.3633ZM24.1603 6.94135C25.4093 7.31155 26.5763 7.87577 27.627 8.59954C27.4795 8.35277 27.301 8.1284 27.0913 7.92641C26.7701 7.61109 26.3913 7.36551 25.955 7.18966C25.5186 7.0138 25.0428 6.92588 24.5277 6.92588C24.4029 6.92588 24.2805 6.93104 24.1603 6.94135ZM16.1053 11.501C16.149 11.5964 16.197 11.6865 16.2492 11.7713C15.8783 12.0064 15.5271 12.2701 15.1986 12.5594C15.1197 12.4261 15.0512 12.2848 14.9932 12.1355C15.1152 12.0311 15.2401 11.93 15.3677 11.8323L16.1053 11.501ZM14.0498 13.0743C13.8465 13.3094 13.6553 13.5554 13.4771 13.8114H14.0384L14.0498 13.7963V13.0743ZM28.6692 29.7416H26.0054H24.9138H15.6166H14.525H11.8636C14.2312 31.4178 17.1323 32.4044 20.2664 32.4044C23.4005 32.4044 26.3016 31.4178 28.6692 29.7416ZM8.46827 26.3676H8.7662L9.58364 25.3126L9.87869 24.9319L11.0244 23.4533C11.3298 23.0531 11.5589 22.7038 11.7117 22.4055C11.8644 22.0999 11.9662 21.8197 12.0171 21.565C12.0306 21.4974 12.0423 21.4299 12.0523 21.3623C12.0797 21.1752 12.0935 20.9881 12.0935 20.801C12.0935 20.2843 11.9698 19.8259 11.7226 19.4257C11.6619 19.3258 11.5956 19.2311 11.5236 19.1416C11.3019 18.8664 11.0264 18.6409 10.6971 18.4652C10.268 18.2251 9.76983 18.105 9.20256 18.105C8.73159 18.105 8.30435 18.1899 7.92083 18.3598C7.84833 18.3919 7.77739 18.427 7.70801 18.4652C7.62592 18.5104 7.54718 18.5586 7.47177 18.61C7.14638 18.8316 6.88331 19.1108 6.68256 19.4475C6.43529 19.8623 6.31165 20.3389 6.31165 20.8774C6.31165 21.3649 6.42074 21.8051 6.63892 22.1981C6.86438 22.5837 7.16983 22.8894 7.55529 23.1149C7.85885 23.2893 8.19501 23.3963 8.56375 23.4359C8.67206 23.4475 8.78318 23.4533 8.89711 23.4533C8.94172 23.4533 8.98563 23.4519 9.02884 23.4491L8.73998 23.8187L7.69175 25.16L6.74802 26.3676H8.46827ZM9.02884 23.4491L9.05373 23.4173L9.06705 23.4463C9.06223 23.4467 9.0574 23.4471 9.05256 23.4474C9.04468 23.448 9.03677 23.4486 9.02884 23.4491ZM8.44831 21.8115C8.49643 21.8494 8.54785 21.8836 8.60256 21.9143C8.78438 22.0162 8.98438 22.0671 9.20256 22.0671C9.42802 22.0671 9.62802 22.0162 9.80256 21.9143C9.98438 21.8124 10.1298 21.6705 10.2389 21.4886C10.348 21.3067 10.4026 21.0957 10.4026 20.8556C10.4026 20.6081 10.348 20.3935 10.2389 20.2116C10.1298 20.0297 9.98438 19.8878 9.80256 19.7859C9.62802 19.684 9.42802 19.6331 9.20256 19.6331C8.98438 19.6331 8.78438 19.684 8.60256 19.7859C8.42074 19.8878 8.27529 20.0297 8.1662 20.2116C8.14209 20.2518 8.12064 20.2936 8.10186 20.337C8.03566 20.49 8.00256 20.6628 8.00256 20.8556C8.00256 21.0957 8.05711 21.3067 8.1662 21.4886C8.24246 21.6158 8.3365 21.7234 8.44831 21.8115ZM18.0227 25.9746C17.9094 26.0559 17.7916 26.1276 17.6692 26.19C17.4586 26.2973 17.2346 26.3766 16.9973 26.4279C16.7795 26.475 16.5504 26.4986 16.31 26.4986C15.6627 26.4986 15.0918 26.3239 14.5973 25.9746C14.11 25.6254 13.7282 25.1342 13.4518 24.5011C13.2994 24.1521 13.1891 23.772 13.1207 23.361C13.0697 23.0542 13.0421 22.7301 13.0378 22.3888C13.0375 22.3581 13.0373 22.3273 13.0373 22.2963C13.0373 21.4522 13.1718 20.7173 13.4409 20.0915C13.7173 19.4657 14.0991 18.9782 14.5864 18.6289C15.0809 18.2796 15.6518 18.105 16.2991 18.105C16.9609 18.105 17.5355 18.2796 18.0227 18.6289C18.5173 18.9782 18.8991 19.4694 19.1682 20.1024C19.4446 20.7282 19.5827 21.4595 19.5827 22.2963C19.5827 23.1331 19.4446 23.8681 19.1682 24.5011C18.8991 25.1269 18.5173 25.6181 18.0227 25.9746ZM16.3209 24.9705C16.6555 24.9705 16.9391 24.865 17.1718 24.6539C17.4046 24.4429 17.5827 24.1373 17.7064 23.7371C17.83 23.3369 17.8918 22.8566 17.8918 22.2963C17.8918 21.736 17.83 21.2594 17.7064 20.8665C17.5827 20.4663 17.4009 20.1606 17.1609 19.9496C16.9282 19.7386 16.6409 19.6331 16.2991 19.6331C15.9646 19.6331 15.6809 19.7386 15.4482 19.9496C15.2155 20.1606 15.0373 20.4663 14.9136 20.8665C14.79 21.2594 14.7282 21.736 14.7282 22.2963C14.7282 22.8493 14.79 23.326 14.9136 23.7262C15.0373 24.1264 15.2155 24.4356 15.4482 24.6539C15.6882 24.865 15.9791 24.9705 16.3209 24.9705ZM27.1986 22.8657C27.2137 22.6814 27.2212 22.4917 27.2212 22.2963C27.2212 21.4595 27.083 20.7282 26.8067 20.1024C26.5376 19.4694 26.1558 18.9782 25.6612 18.6289C25.174 18.2796 24.5994 18.105 23.9376 18.105C23.2903 18.105 22.7194 18.2796 22.2249 18.6289C21.7376 18.9782 21.3558 19.4657 21.0794 20.0915C20.8103 20.7173 20.6758 21.4522 20.6758 22.2963C20.6758 23.1331 20.814 23.8681 21.0903 24.5011C21.3667 25.1342 21.7485 25.6254 22.2358 25.9746C22.3838 26.0792 22.5386 26.1681 22.7003 26.2413C22.9353 26.3478 23.1847 26.4212 23.4486 26.4615C23.6098 26.4862 23.7765 26.4986 23.9485 26.4986C24.603 26.4986 25.174 26.3239 25.6612 25.9746C26.1558 25.6181 26.5376 25.1269 26.8067 24.5011C26.8961 24.2963 26.9711 24.0807 27.0316 23.8546C27.1144 23.5449 27.1701 23.2153 27.1986 22.8657ZM24.8103 24.6539C24.5776 24.865 24.294 24.9705 23.9594 24.9705C23.6176 24.9705 23.3267 24.865 23.0867 24.6539C22.854 24.4356 22.6758 24.1264 22.5521 23.7262C22.4285 23.326 22.3667 22.8493 22.3667 22.2963C22.3667 21.736 22.4285 21.2594 22.5521 20.8665C22.6758 20.4663 22.854 20.1606 23.0867 19.9496C23.3194 19.7386 23.603 19.6331 23.9376 19.6331C24.2794 19.6331 24.5667 19.7386 24.7994 19.9496C25.0394 20.1606 25.2212 20.4663 25.3449 20.8665C25.4685 21.2594 25.5303 21.736 25.5303 22.2963C25.5303 22.8566 25.4685 23.3369 25.3449 23.7371C25.2212 24.1373 25.043 24.4429 24.8103 24.6539ZM29.6234 26.3213V19.6658H28.9358H28.4746H28.0415V18.236H28.602H29.0566H31.3143V23.7581V24.7178V26.3676H30.1762H29.6234V26.3213Z" fill="#FF6B6B"/>
</svg>
