<svg width="97" height="88" viewBox="0 0 97 88" fill="none" xmlns="http://www.w3.org/2000/svg">
<path d="M59.8434 33.5627C58.6216 33.5627 57.487 33.3518 56.4398 32.93C55.3925 32.5082 54.4761 31.9191 53.6907 31.1627C52.9198 30.3918 52.3161 29.4973 51.8798 28.4791C51.4649 27.5111 51.2472 26.4641 51.2268 25.3383C51.2257 25.28 51.2252 25.2215 51.2252 25.1627C51.2252 24.852 51.2395 24.5471 51.2682 24.2482C51.3494 23.3999 51.546 22.5993 51.8579 21.8464C52.2943 20.8282 52.8979 19.9409 53.6688 19.1845C54.4543 18.4282 55.3707 17.8391 56.4179 17.4173C57.2116 17.0976 58.0595 16.8991 58.9618 16.8217C59.2501 16.7969 59.544 16.7845 59.8434 16.7845C61.0798 16.7845 62.2216 16.9955 63.2688 17.4173C64.3161 17.8391 65.2252 18.4282 65.9961 19.1845C66.4993 19.669 66.9278 20.2073 67.2817 20.7992C67.4803 21.1313 67.6554 21.4804 67.807 21.8464C68.2434 22.8645 68.4616 23.97 68.4616 25.1627C68.4616 26.3555 68.2434 27.4609 67.807 28.4791C67.3907 29.4505 66.8156 30.3093 66.0815 31.0556C66.0462 31.0916 66.0104 31.1273 65.9743 31.1627C65.75 31.3828 65.5139 31.5888 65.2662 31.7806C64.6626 32.2478 63.9895 32.6309 63.247 32.93C62.1998 33.3518 61.0652 33.5627 59.8434 33.5627ZM59.8434 30.5082C60.5852 30.5082 61.2688 30.3773 61.8943 30.1155C62.2512 29.9695 62.5831 29.7918 62.8902 29.5825C63.1339 29.4165 63.3619 29.2305 63.5743 29.0245C63.6286 28.9703 63.6814 28.9149 63.7329 28.8585C64.1368 28.4152 64.4548 27.9033 64.687 27.3227C64.9489 26.6682 65.0798 25.9482 65.0798 25.1627C65.0798 24.3773 64.9489 23.6645 64.687 23.0245C64.4252 22.37 64.0543 21.8027 63.5743 21.3227C63.0943 20.8427 62.5343 20.4791 61.8943 20.2318C61.2688 19.97 60.5852 19.8391 59.8434 19.8391C59.1016 19.8391 58.4107 19.97 57.7707 20.2318C57.1452 20.4791 56.5925 20.8427 56.1125 21.3227C55.6325 21.8027 55.2616 22.37 54.9998 23.0245C54.7991 23.5152 54.6753 24.0485 54.6284 24.6246C54.6142 24.8 54.607 24.9794 54.607 25.1627C54.607 25.3586 54.6152 25.5504 54.6315 25.7382C54.6805 26.3032 54.8032 26.8314 54.9998 27.3227C55.2616 27.9773 55.6325 28.5445 56.1125 29.0245C56.5925 29.49 57.1452 29.8536 57.7707 30.1155C58.4107 30.3773 59.1016 30.5082 59.8434 30.5082Z" fill="#FF6B6B"/>
<path d="M43.4915 33.5627C42.4733 33.5627 41.5133 33.3809 40.6115 33.0173C39.7242 32.6391 38.9533 32.1082 38.2988 31.4245C37.9765 31.0803 37.6948 30.7047 37.4536 30.2977C37.2643 29.9781 37.1 29.6392 36.9606 29.281C36.9251 29.1895 36.8911 29.0967 36.8588 29.0027L37.8595 28.5536L39.6297 27.7591C39.7347 27.9878 39.8498 28.2039 39.975 28.4074C40.3358 28.9937 40.7806 29.4757 41.3097 29.8536C42.037 30.3627 42.837 30.6173 43.7097 30.6173C44.1751 30.6173 44.5752 30.5445 44.9097 30.3991C45.2442 30.2536 45.5061 30.0573 45.6952 29.81C45.8842 29.5482 45.9788 29.2427 45.9788 28.8936C45.9788 28.5155 45.8624 28.1955 45.6297 27.9336C45.397 27.6573 45.0333 27.4391 44.5388 27.2791L43.0852 26.8012L41.5408 26.2934L41.3533 26.2318C40.0588 25.81 39.0842 25.2136 38.4297 24.4427C37.7751 23.6573 37.4479 22.7191 37.4479 21.6282C37.4479 20.6682 37.6806 19.8245 38.1461 19.0973C38.473 18.6019 38.8843 18.1807 39.38 17.8338C39.612 17.6714 39.8625 17.5253 40.1315 17.3955C40.7614 17.0965 41.4579 16.9073 42.2209 16.8278C42.4975 16.799 42.7829 16.7845 43.077 16.7845C44.0515 16.7845 44.9533 16.9518 45.7824 17.2864C46.6115 17.6209 47.3242 18.0936 47.9206 18.7045C48.5315 19.3155 48.9897 20.05 49.2952 20.9082L46.5461 22.1518C46.2406 21.3955 45.7824 20.8064 45.1715 20.3845C44.5606 19.9482 43.8624 19.73 43.077 19.73C42.6261 19.73 42.2261 19.8027 41.877 19.9482C41.5279 20.0936 41.2588 20.3045 41.0697 20.5809C40.8806 20.8427 40.7861 21.1482 40.7861 21.4973C40.7861 21.8755 40.9097 22.21 41.157 22.5009C41.4042 22.7773 41.7752 22.9955 42.2697 23.1555L45.3897 24.1591C45.8176 24.297 46.2097 24.4527 46.5661 24.6263C47.0912 24.8821 47.5386 25.1766 47.9085 25.5099C48.0558 25.6426 48.1907 25.7814 48.3133 25.9264C48.9679 26.6827 49.2952 27.6064 49.2952 28.6973C49.2952 29.6427 49.0479 30.4864 48.5533 31.2282C48.0588 31.9555 47.3751 32.53 46.5024 32.9518C45.6442 33.3591 44.6406 33.5627 43.4915 33.5627Z" fill="#FF6B6B"/>
<path d="M31.3146 33.3009V22.8159V21.3911V17.0464H34.6964V18.9953V20.2835V31.5328V33.2648V33.3009H34.6691H33.322H31.3146Z" fill="#FF6B6B"/>
<path fill-rule="evenodd" clip-rule="evenodd" d="M49.61 2.70117C46.9335 2.70117 45.2452 4.00315 43.6471 5.23562C42.5586 6.07504 41.5119 6.88223 40.2233 7.22386C40.1665 7.24122 40.1093 7.25768 40.0517 7.27326L39.9234 7.30633C38.5885 7.63429 37.0313 7.51944 35.4144 7.40018C33.102 7.22964 30.6676 7.05009 28.5869 8.14373C26.5656 9.20616 25.9986 10.8811 25.4189 12.594C24.9529 13.9708 24.4786 15.372 23.2342 16.4992C21.87 17.7348 20.3113 18.4213 18.8179 19.0791C16.6595 20.0297 14.6376 20.9202 13.5372 23.3216C12.8905 24.7328 12.8815 28.7963 13.2219 32.76C12.7979 34.1472 12.453 35.5682 12.1922 37.018H2.7207V71.5132H23.5245C24.5562 72.5875 24.991 73.8723 25.4189 75.1364C25.9986 76.8493 26.5656 78.5243 28.5869 79.5867C30.6676 80.6803 33.102 80.5008 35.4144 80.3303C37.154 80.202 38.8245 80.0788 40.2233 80.5066C41.5119 80.8482 42.5586 81.6554 43.6471 82.4948C45.2452 83.7273 46.9335 85.0293 49.61 85.0293V81.1967H49.6142V85.0293C52.2907 85.0293 53.979 83.7273 55.5771 82.4948C56.6656 81.6554 57.7123 80.8482 59.0009 80.5066C60.3997 80.0788 62.0702 80.202 63.8098 80.3303C66.1222 80.5008 68.5566 80.6803 70.6373 79.5867C72.6586 78.5243 73.2256 76.8493 73.8053 75.1364C74.2332 73.8723 74.668 72.5875 75.6997 71.5132H95.2298V37.018H87.0404C86.7783 35.5608 86.4311 34.1325 86.0041 32.7386C86.3427 28.7817 86.3326 24.7303 85.687 23.3216C84.5866 20.9202 82.5647 20.0297 80.4063 19.0791C78.9129 18.4213 77.3542 17.7348 75.99 16.4992C74.7456 15.372 74.2713 13.9708 73.8053 12.594C73.2256 10.8812 72.6586 9.20616 70.6373 8.14373C68.5566 7.05009 66.1222 7.22964 63.8098 7.40018C62.2298 7.51671 60.7068 7.62904 59.3926 7.32811C59.2902 7.30127 59.1876 7.27483 59.0849 7.24881L59.0009 7.22386C57.7123 6.88223 56.6656 6.07505 55.5771 5.23562C53.979 4.00315 52.2907 2.70117 49.6142 2.70117V6.07419L49.61 6.07419V2.70117ZM83.6464 37.018C80.5263 21.2606 66.4765 9.37047 49.6163 9.37047C32.7561 9.37047 18.7063 21.2606 15.5861 37.018H19.6332H20.7516H29.6117H30.7653H68.4616H69.6152H78.4752H79.5937H83.6464ZM65.9743 31.1627C65.75 31.3828 65.5139 31.5888 65.2662 31.7806C64.5343 30.9856 63.7397 30.2503 62.8902 29.5825C63.1339 29.4165 63.3619 29.2305 63.5743 29.0245C63.6286 28.9703 63.6814 28.9149 63.7329 28.8585C64.5699 29.5304 65.3551 30.2652 66.0815 31.0556C66.0462 31.0916 66.0104 31.1273 65.9743 31.1627ZM54.6284 24.6246C53.5361 24.4118 52.4137 24.284 51.2682 24.2482C51.2395 24.5471 51.2252 24.852 51.2252 25.1627C51.2252 25.2215 51.2257 25.28 51.2268 25.3383C52.3894 25.3743 53.527 25.5104 54.6315 25.7382C54.6152 25.5504 54.607 25.3586 54.607 25.1627C54.607 24.9794 54.6142 24.8 54.6284 24.6246ZM46.5661 24.6263C47.0912 24.8821 47.5386 25.1766 47.9085 25.5099C46.2254 25.7384 44.6086 26.1779 43.0852 26.8012L41.5408 26.2934C43.1176 25.5363 44.8026 24.9706 46.5661 24.6263ZM34.6964 18.9953C33.5146 19.7182 32.385 20.5191 31.3146 21.3911V22.8159C32.379 21.8941 33.5089 21.0473 34.6964 20.2835V18.9953ZM39.38 17.8338C40.3046 17.4517 41.2525 17.1155 42.2209 16.8278C41.4579 16.9073 40.7614 17.0965 40.1315 17.3955C39.8625 17.5253 39.612 17.6714 39.38 17.8338ZM58.9618 16.8217C61.9594 17.7097 64.7602 19.0631 67.2817 20.7992C66.9278 20.2073 66.4993 19.669 65.9961 19.1845C65.2252 18.4282 64.3161 17.8391 63.2688 17.4173C62.2216 16.9955 61.0798 16.7845 59.8434 16.7845C59.544 16.7845 59.2501 16.7969 58.9618 16.8217ZM39.6297 27.7591C39.7347 27.9878 39.8498 28.2039 39.975 28.4074C39.085 28.9712 38.2421 29.6038 37.4536 30.2977C37.2643 29.9781 37.1 29.6392 36.9606 29.281C37.2535 29.0305 37.5532 28.7879 37.8595 28.5536L39.6297 27.7591ZM34.6964 31.5328C34.2085 32.0968 33.7496 32.687 33.322 33.3009H34.6691L34.6964 33.2648V31.5328ZM69.7829 71.5132H63.3899H60.7701H38.4568H35.837H29.4496C35.1318 75.5339 42.0944 77.9005 49.6163 77.9005C57.1382 77.9005 64.1007 75.5339 69.7829 71.5132ZM21.3008 63.4198H22.0158L23.9777 60.8893L24.6858 59.9759L27.4355 56.4293C28.1686 55.4693 28.7184 54.6314 29.0849 53.9158C29.4515 53.1827 29.6958 52.5107 29.818 51.8998C29.8504 51.7377 29.8786 51.5756 29.9024 51.4135C29.9683 50.9647 30.0013 50.5159 30.0013 50.0671C30.0013 48.8278 29.7046 47.7282 29.1111 46.7682C28.9656 46.5284 28.8064 46.3013 28.6335 46.0868C28.1016 45.4266 27.4404 44.8857 26.65 44.4642C25.6202 43.8882 24.4246 43.6002 23.0631 43.6002C21.9328 43.6002 20.9074 43.8039 19.987 44.2113C19.813 44.2883 19.6427 44.3726 19.4762 44.4642C19.2792 44.5725 19.0902 44.6883 18.9092 44.8115C18.1283 45.3431 17.4969 46.0128 17.0151 46.8205C16.4216 47.8154 16.1249 48.9587 16.1249 50.2504C16.1249 51.4198 16.3867 52.4758 16.9104 53.4183C17.4515 54.3434 18.1846 55.0765 19.1096 55.6176C19.8382 56.0359 20.645 56.2925 21.53 56.3874C21.7899 56.4153 22.0566 56.4293 22.33 56.4293C22.4371 56.4293 22.5425 56.4259 22.6462 56.4192L21.9529 57.3058L19.4371 60.5232L17.1722 63.4198H21.3008ZM22.6462 56.4192L22.7059 56.3428L22.7379 56.4124C22.7263 56.4133 22.7147 56.4143 22.7031 56.4152C22.6842 56.4166 22.6652 56.418 22.6462 56.4192ZM21.2529 52.4909C21.3684 52.5818 21.4918 52.6641 21.6231 52.7376C22.0595 52.982 22.5395 53.1042 23.0631 53.1042C23.6042 53.1042 24.0842 52.982 24.5031 52.7376C24.9395 52.4933 25.2886 52.1529 25.5504 51.7165C25.8122 51.2802 25.9431 50.774 25.9431 50.198C25.9431 49.6045 25.8122 49.0896 25.5504 48.6533C25.2886 48.2169 24.9395 47.8765 24.5031 47.6322C24.0842 47.3878 23.6042 47.2656 23.0631 47.2656C22.5395 47.2656 22.0595 47.3878 21.6231 47.6322C21.1867 47.8765 20.8376 48.2169 20.5758 48.6533C20.518 48.7497 20.4665 48.85 20.4214 48.9541C20.2625 49.3211 20.1831 49.7357 20.1831 50.198C20.1831 50.774 20.314 51.2802 20.5758 51.7165C20.7589 52.0216 20.9846 52.2797 21.2529 52.4909ZM44.2315 62.4773C43.9595 62.6721 43.6767 62.8443 43.383 62.9938C42.8776 63.2511 42.3401 63.4414 41.7704 63.5645C41.2477 63.6775 40.6978 63.734 40.121 63.734C38.5675 63.734 37.1973 63.3151 36.0104 62.4773C34.841 61.6394 33.9246 60.4613 33.2613 58.9427C32.8956 58.1054 32.6307 57.1938 32.4667 56.2079C32.3442 55.472 32.2779 54.6946 32.2678 53.8758C32.2669 53.8022 32.2664 53.7283 32.2664 53.654C32.2664 51.6293 32.5893 49.8663 33.2352 48.3653C33.8984 46.8642 34.8148 45.6947 35.9842 44.8569C37.1712 44.0191 38.5413 43.6002 40.0948 43.6002C41.6832 43.6002 43.0621 44.0191 44.2315 44.8569C45.4184 45.6947 46.3348 46.8729 46.9806 48.3914C47.6439 49.8925 47.9755 51.6467 47.9755 53.654C47.9755 55.6613 47.6439 57.4242 46.9806 58.9427C46.3348 60.4438 45.4184 61.622 44.2315 62.4773ZM40.1472 60.0685C40.9501 60.0685 41.6308 59.8154 42.1893 59.3093C42.7479 58.8031 43.1755 58.07 43.4722 57.11C43.769 56.15 43.9173 54.998 43.9173 53.654C43.9173 52.31 43.769 51.1667 43.4722 50.2242C43.1755 49.2642 42.7392 48.5311 42.1632 48.0249C41.6046 47.5187 40.9152 47.2656 40.0948 47.2656C39.2919 47.2656 38.6111 47.5187 38.0526 48.0249C37.4941 48.5311 37.0664 49.2642 36.7697 50.2242C36.473 51.1667 36.3246 52.31 36.3246 53.654C36.3246 54.9805 36.473 56.1238 36.7697 57.0838C37.0664 58.0438 37.4941 58.7856 38.0526 59.3093C38.6286 59.8154 39.3268 60.0685 40.1472 60.0685ZM66.2537 55.0198C66.2898 54.5778 66.3079 54.1226 66.3079 53.654C66.3079 51.6467 65.9763 49.8925 65.313 48.3914C64.6672 46.8729 63.7508 45.6947 62.5639 44.8569C61.3945 44.0191 60.0155 43.6002 58.4272 43.6002C56.8737 43.6002 55.5035 44.0191 54.3166 44.8569C53.1472 45.6947 52.2308 46.8642 51.5675 48.3653C50.9217 49.8663 50.5988 51.6293 50.5988 53.654C50.5988 55.6613 50.9305 57.4242 51.5937 58.9427C52.257 60.4613 53.1734 61.6394 54.3428 62.4773C54.698 62.728 55.0697 62.9412 55.4578 63.1169C56.0217 63.3723 56.6203 63.5484 57.2536 63.6452C57.6406 63.7044 58.0405 63.734 58.4534 63.734C60.0243 63.734 61.3945 63.3151 62.5639 62.4773C63.7508 61.622 64.6672 60.4438 65.313 58.9427C65.5276 58.4513 65.7075 57.9343 65.8527 57.3918C66.0514 56.649 66.1851 55.8584 66.2537 55.0198ZM60.5217 59.3093C59.9632 59.8154 59.2825 60.0685 58.4795 60.0685C57.6592 60.0685 56.961 59.8154 56.385 59.3093C55.8265 58.7856 55.3988 58.0438 55.1021 57.0838C54.8054 56.1238 54.657 54.9805 54.657 53.654C54.657 52.31 54.8054 51.1667 55.1021 50.2242C55.3988 49.2642 55.8265 48.5311 56.385 48.0249C56.9435 47.5187 57.6243 47.2656 58.4272 47.2656C59.2475 47.2656 59.937 47.5187 60.4955 48.0249C61.0715 48.5311 61.5079 49.2642 61.8046 50.2242C62.1014 51.1667 62.2497 52.31 62.2497 53.654C62.2497 54.998 62.1014 56.15 61.8046 57.11C61.5079 58.07 61.0803 58.8031 60.5217 59.3093ZM72.073 63.3089V47.3442H70.4228H69.3161H68.2767V43.9144H69.6218H70.7127H76.1312V57.1603V59.4624V63.4198H73.3998H72.073V63.3089Z" fill="#FF6B6B"/>
</svg>
