<svg width="512" height="512" viewBox="0 0 512 512" fill="none" xmlns="http://www.w3.org/2000/svg">
<path d="M134.166 43.6429L84.6289 463.812L437.1 302.506L134.166 43.6429Z" fill="#271D12"/>
<path d="M156.501 327.17L60.6098 214.446L199.486 171.16L156.501 327.17Z" fill="#CA2C31"/>
<path d="M206.786 261.457L147.359 232.658L397.149 151.643L396.507 152.647L248.917 278.791L281.424 294.662L231.013 337.34L206.786 261.457Z" fill="#443FCC"/>
<path fill-rule="evenodd" clip-rule="evenodd" d="M408.08 143.198L400.061 155.74L257.343 277.719L289.883 293.607L228.696 345.407L202.953 264.779L134.9 231.8L408.08 143.198ZM212.37 263.627L230.916 321.717L244.857 276.13L355.594 181.484L212.37 263.627ZM358.479 169.084L159.817 233.517L206.602 256.19L358.479 169.084ZM240.108 323.534L272.964 295.718L251.777 285.374L240.108 323.534Z" fill="#B4B4B4"/>
<path d="M250.447 277.743L395.334 154.38L395.949 154.38L314.358 312.142L251.213 279.706L250.447 277.743Z" fill="#4263EC"/>
<path fill-rule="evenodd" clip-rule="evenodd" d="M403.607 149.719L316.363 318.411L247.512 283.045L244.9 276.345L393.618 149.721L403.607 149.719ZM381.401 172.365L257.619 277.758L312.353 305.873L381.401 172.365Z" fill="#B4B4B4"/>
</svg>
