<svg width="84" height="47" viewBox="0 0 84 47" fill="none" xmlns="http://www.w3.org/2000/svg">
<path d="M0 46.5781L3.34598 36.6862H6.08118L9.42715 46.5781H7.18323L6.51934 44.5599H2.89453L2.23065 46.5781H0ZM3.46548 42.7674H5.9484L4.43475 38.0936H4.99241L3.46548 42.7674Z" fill="#F7F7F7"/>
<path d="M15.4538 46.7374C14.6748 46.7374 13.9799 46.5736 13.3692 46.2461C12.7584 45.9186 12.276 45.4716 11.9219 44.9051C11.5767 44.3297 11.4041 43.6791 11.4041 42.9533V36.6862H13.4621V42.8205C13.4621 43.21 13.5462 43.564 13.7144 43.8827C13.8914 44.1925 14.1304 44.4359 14.4314 44.613C14.7323 44.79 15.0731 44.8785 15.4538 44.8785C15.8432 44.8785 16.184 44.79 16.4762 44.613C16.7771 44.4359 17.0117 44.1925 17.1799 43.8827C17.3569 43.564 17.4454 43.21 17.4454 42.8205V36.6862H19.5035V42.9533C19.5035 43.6791 19.3264 44.3297 18.9724 44.9051C18.6271 45.4716 18.1491 45.9186 17.5384 46.2461C16.9276 46.5736 16.2327 46.7374 15.4538 46.7374Z" fill="#F7F7F7"/>
<path d="M22.4595 46.5781V36.6862H25.686C26.7571 36.6862 27.6865 36.8986 28.4743 37.3235C29.2621 37.7484 29.8729 38.3326 30.3066 39.0762C30.7404 39.8197 30.9572 40.6695 30.9572 41.6255C30.9572 42.5815 30.7404 43.4357 30.3066 44.1881C29.8729 44.9316 29.2621 45.5159 28.4743 45.9407C27.6865 46.3656 26.7571 46.5781 25.686 46.5781H22.4595ZM24.5176 44.7856H25.7391C26.3853 44.7856 26.9429 44.6572 27.4121 44.4005C27.8812 44.135 28.2442 43.7676 28.5009 43.2985C28.7664 42.8205 28.8992 42.2628 28.8992 41.6255C28.8992 40.9793 28.7664 40.4217 28.5009 39.9525C28.2442 39.4834 27.8812 39.1204 27.4121 38.8637C26.9429 38.607 26.3853 38.4787 25.7391 38.4787H24.5176V44.7856Z" fill="#F7F7F7"/>
<path d="M33.6029 46.5781V36.6862H35.6609V46.5781H33.6029Z" fill="#F7F7F7"/>
<path d="M40.522 46.5781V38.4787H38.0125V36.6862H45.0497V38.4787H42.5801V46.5781H40.522Z" fill="#F7F7F7"/>
<path d="M51.9473 46.7374C51.2037 46.7374 50.5133 46.6091 49.8759 46.3524C49.2386 46.0957 48.681 45.7372 48.203 45.2769C47.7338 44.8077 47.3665 44.2633 47.1009 43.6437C46.8354 43.0241 46.7026 42.3513 46.7026 41.6255C46.7026 40.8996 46.8309 40.2269 47.0876 39.6073C47.3532 38.9877 47.7205 38.4477 48.1897 37.9874C48.6677 37.5271 49.2253 37.1686 49.8627 36.9119C50.5 36.6552 51.1949 36.5269 51.9473 36.5269C52.6997 36.5269 53.3945 36.6552 54.0319 36.9119C54.6692 37.1686 55.2224 37.5271 55.6916 37.9874C56.1696 38.4477 56.5369 38.9877 56.7936 39.6073C57.0592 40.2269 57.1919 40.8996 57.1919 41.6255C57.1919 42.3513 57.0592 43.0241 56.7936 43.6437C56.5281 44.2633 56.1563 44.8077 55.6783 45.2769C55.2091 45.7372 54.6559 46.0957 54.0186 46.3524C53.3813 46.6091 52.6908 46.7374 51.9473 46.7374ZM51.9473 44.8785C52.3987 44.8785 52.8147 44.7989 53.1954 44.6395C53.5848 44.4802 53.9256 44.2589 54.2177 43.9756C54.5099 43.6835 54.7356 43.3383 54.8949 42.94C55.0542 42.5417 55.1339 42.1035 55.1339 41.6255C55.1339 41.1475 55.0542 40.7138 54.8949 40.3243C54.7356 39.926 54.5099 39.5807 54.2177 39.2886C53.9256 38.9965 53.5848 38.7752 53.1954 38.6247C52.8147 38.4654 52.3987 38.3857 51.9473 38.3857C51.4958 38.3857 51.0754 38.4654 50.6859 38.6247C50.3053 38.7752 49.9689 38.9965 49.6768 39.2886C49.3847 39.5807 49.159 39.926 48.9996 40.3243C48.8403 40.7138 48.7606 41.1475 48.7606 41.6255C48.7606 42.1035 48.8403 42.5417 48.9996 42.94C49.159 43.3383 49.3847 43.6835 49.6768 43.9756C49.9689 44.2589 50.3053 44.4802 50.6859 44.6395C51.0754 44.7989 51.4958 44.8785 51.9473 44.8785Z" fill="#F7F7F7"/>
<path d="M59.9793 46.5781V36.6862H63.7635C64.4451 36.6862 65.047 36.8057 65.5692 37.0447C66.1004 37.2837 66.5164 37.6378 66.8173 38.1069C67.1183 38.5761 67.2688 39.1558 67.2688 39.8463C67.2688 40.519 67.1139 41.0944 66.8041 41.5724C66.4943 42.0415 66.0782 42.3956 65.556 42.6346L67.8132 46.5781H65.5029L63.0598 42.2097L64.3875 42.9931H62.0374V46.5781H59.9793ZM62.0374 41.2006H63.7768C64.0689 41.2006 64.3211 41.1431 64.5336 41.028C64.746 40.9129 64.9098 40.7536 65.0249 40.55C65.1488 40.3464 65.2107 40.1118 65.2107 39.8463C65.2107 39.5719 65.1488 39.3329 65.0249 39.1293C64.9098 38.9257 64.746 38.7664 64.5336 38.6513C64.3211 38.5362 64.0689 38.4787 63.7768 38.4787H62.0374V41.2006Z" fill="#F7F7F7"/>
<path d="M70.1632 46.5781V36.6862H72.2213V46.5781H70.1632Z" fill="#F7F7F7"/>
<path d="M74.5729 46.5781L77.9188 36.6862H80.654L84 46.5781H81.7561L81.0922 44.5599H77.4674L76.8035 46.5781H74.5729ZM78.0383 42.7674H80.5213L79.0076 38.0936H79.5653L78.0383 42.7674Z" fill="#F7F7F7"/>
<path fill-rule="evenodd" clip-rule="evenodd" d="M32.1128 30.883L32.1127 21.7169H37.7846L43.2846 31.143H50.3232L43.975 20.6917C47.3791 19.1161 49.8001 15.4564 49.8001 11.4703C49.8001 5.72889 45.1016 0.869141 39.3519 0.869141H25.9185H0V31.143H32.1127L32.1128 30.883ZM39.3519 15.9043C41.8249 15.9043 43.8297 13.9024 43.8297 11.433C43.8297 8.96359 41.8249 6.96174 39.3519 6.96174L32.1128 6.96174V15.9043L39.3519 15.9043ZM15.3956 1.07459C19.5014 1.07459 23.2199 2.72989 25.9185 5.40862L21.7094 9.63673C20.0902 8.02947 17.8591 7.03626 15.3956 7.03626C10.4496 7.03626 6.44002 11.04 6.44002 15.9788C6.44002 20.9176 10.4496 24.9213 15.3956 24.9213C17.8364 24.9213 20.0492 23.9463 21.6645 22.365L25.9185 26.5489C23.2199 29.2276 19.5014 30.883 15.3956 30.883C7.15222 30.883 0.469618 24.2101 0.469618 15.9788C0.469618 7.74742 7.15222 1.07459 15.3956 1.07459Z" fill="#F7F7F7"/>
<path d="M53.7539 1H61.2169V31.15H53.7539V1Z" fill="#FF3D3D"/>
<path d="M64.9492 1H72.4122V31.15H64.9492V1Z" fill="#4075FF"/>
<path d="M76.1445 1H83.6075V31.15H76.1445V1Z" fill="#FFA800"/>
</svg>
