<svg width="80" height="49" viewBox="0 0 80 49" fill="none" xmlns="http://www.w3.org/2000/svg">
<path d="M0 47.1562L3.18664 37.7904H5.7916L8.97824 47.1562H6.84117L6.2089 45.2453H2.7567L2.12443 47.1562H0ZM3.30045 43.5482H5.66514L4.22357 39.123H4.75467L3.30045 43.5482Z" fill="#F7F7F7"/>
<path d="M14.7179 47.3071C13.976 47.3071 13.3142 47.152 12.7325 46.8419C12.1509 46.5318 11.6914 46.1086 11.3542 45.5722C11.0254 45.0274 10.861 44.4114 10.861 43.7242V37.7904H12.8211V43.5985C12.8211 43.9672 12.9011 44.3025 13.0613 44.6042C13.2299 44.8975 13.4575 45.128 13.7442 45.2956C14.0308 45.4633 14.3554 45.5471 14.7179 45.5471C15.0888 45.5471 15.4134 45.4633 15.6916 45.2956C15.9782 45.128 16.2016 44.8975 16.3618 44.6042C16.5304 44.3025 16.6147 43.9672 16.6147 43.5985V37.7904H18.5747V43.7242C18.5747 44.4114 18.4061 45.0274 18.0689 45.5722C17.7401 46.1086 17.2849 46.5318 16.7032 46.8419C16.1215 47.152 15.4597 47.3071 14.7179 47.3071Z" fill="#F7F7F7"/>
<path d="M21.39 47.1562V37.7904H24.4628C25.4829 37.7904 26.3681 37.9915 27.1184 38.3938C27.8687 38.7961 28.4504 39.3493 28.8634 40.0533C29.2765 40.7573 29.4831 41.5619 29.4831 42.467C29.4831 43.3722 29.2765 44.181 28.8634 44.8933C28.4504 45.5974 27.8687 46.1505 27.1184 46.5528C26.3681 46.9551 25.4829 47.1562 24.4628 47.1562H21.39ZM23.35 45.4591H24.5134C25.1288 45.4591 25.6599 45.3375 26.1067 45.0945C26.5535 44.8431 26.8992 44.4952 27.1437 44.051C27.3966 43.5985 27.523 43.0705 27.523 42.467C27.523 41.8552 27.3966 41.3272 27.1437 40.883C26.8992 40.4388 26.5535 40.0952 26.1067 39.8521C25.6599 39.6091 25.1288 39.4876 24.5134 39.4876H23.35V45.4591Z" fill="#F7F7F7"/>
<path d="M32.0028 47.1562V37.7904H33.9628V47.1562H32.0028Z" fill="#F7F7F7"/>
<path d="M38.5924 47.1562V39.4876H36.2024V37.7904H42.9045V39.4876H40.5524V47.1562H38.5924Z" fill="#F7F7F7"/>
<path d="M49.4736 47.3071C48.7654 47.3071 48.1079 47.1856 47.5009 46.9425C46.8939 46.6995 46.3628 46.36 45.9076 45.9242C45.4608 45.48 45.1109 44.9646 44.858 44.3779C44.6051 43.7912 44.4786 43.1543 44.4786 42.467C44.4786 41.7798 44.6009 41.1428 44.8454 40.5561C45.0983 39.9695 45.4481 39.4582 45.8949 39.0224C46.3502 38.5866 46.8813 38.2472 47.4883 38.0041C48.0952 37.7611 48.757 37.6395 49.4736 37.6395C50.1902 37.6395 50.8519 37.7611 51.4589 38.0041C52.0659 38.2472 52.5928 38.5866 53.0396 39.0224C53.4948 39.4582 53.8447 39.9695 54.0892 40.5561C54.3421 41.1428 54.4685 41.7798 54.4685 42.467C54.4685 43.1543 54.3421 43.7912 54.0892 44.3779C53.8363 44.9646 53.4822 45.48 53.0269 45.9242C52.5801 46.36 52.0532 46.6995 51.4463 46.9425C50.8393 47.1856 50.1817 47.3071 49.4736 47.3071ZM49.4736 45.5471C49.9035 45.5471 50.2998 45.4716 50.6623 45.3208C51.0332 45.1699 51.3577 44.9604 51.6359 44.6922C51.9141 44.4156 52.1291 44.0888 52.2809 43.7116C52.4326 43.3345 52.5085 42.9196 52.5085 42.467C52.5085 42.0145 52.4326 41.6038 52.2809 41.235C52.1291 40.8579 51.9141 40.531 51.6359 40.2544C51.3577 39.9779 51.0332 39.7683 50.6623 39.6259C50.2998 39.475 49.9035 39.3996 49.4736 39.3996C49.0436 39.3996 48.6432 39.475 48.2723 39.6259C47.9098 39.7683 47.5894 39.9779 47.3112 40.2544C47.033 40.531 46.818 40.8579 46.6663 41.235C46.5146 41.6038 46.4387 42.0145 46.4387 42.467C46.4387 42.9196 46.5146 43.3345 46.6663 43.7116C46.818 44.0888 47.033 44.4156 47.3112 44.6922C47.5894 44.9604 47.9098 45.1699 48.2723 45.3208C48.6432 45.4716 49.0436 45.5471 49.4736 45.5471Z" fill="#F7F7F7"/>
<path d="M57.1232 47.1562V37.7904H60.7271C61.3763 37.7904 61.9495 37.9035 62.4469 38.1298C62.9527 38.3561 63.3489 38.6914 63.6356 39.1356C63.9222 39.5798 64.0655 40.1287 64.0655 40.7824C64.0655 41.4194 63.918 41.9642 63.6229 42.4167C63.3279 42.8609 62.9316 43.1962 62.4343 43.4225L64.584 47.1562H62.3837L60.0569 43.0202L61.3215 43.7619H59.0832V47.1562H57.1232ZM59.0832 42.0647H60.7398C61.018 42.0647 61.2582 42.0103 61.4606 41.9013C61.6629 41.7924 61.8189 41.6415 61.9284 41.4487C62.0465 41.256 62.1055 41.0339 62.1055 40.7824C62.1055 40.5226 62.0465 40.2963 61.9284 40.1036C61.8189 39.9108 61.6629 39.7599 61.4606 39.651C61.2582 39.542 61.018 39.4876 60.7398 39.4876H59.0832V42.0647Z" fill="#F7F7F7"/>
<path d="M66.8221 47.1562V37.7904H68.7822V47.1562H66.8221Z" fill="#F7F7F7"/>
<path d="M71.0218 47.1562L74.2084 37.7904H76.8134L80 47.1562H77.8629L77.2307 45.2453H73.7785L73.1462 47.1562H71.0218ZM74.3222 43.5482H76.6869L75.2453 39.123H75.7764L74.3222 43.5482Z" fill="#F7F7F7"/>
<path fill-rule="evenodd" clip-rule="evenodd" d="M30.5836 29.2937L30.5836 20.6151H35.9854L41.2234 29.5399H47.9269L41.881 19.6445C45.1229 18.1527 47.4286 14.6876 47.4286 10.9134C47.4286 5.47735 42.9539 0.876038 37.478 0.876038H24.6842H0V29.5399H30.5836L30.5836 29.2937ZM37.478 15.1116C39.8332 15.1116 41.7425 13.2162 41.7425 10.8781C41.7425 8.54003 39.8332 6.64464 37.478 6.64464L30.5836 6.64464V15.1116L37.478 15.1116ZM14.6625 1.07056C18.5727 1.07056 22.1142 2.63784 24.6842 5.17411L20.6756 9.17737C19.1336 7.65558 17.0087 6.7152 14.6625 6.7152C9.95198 6.7152 6.13335 10.506 6.13335 15.1821C6.13335 19.8583 9.95198 23.6491 14.6625 23.6491C16.9871 23.6491 19.0945 22.7259 20.6329 21.2288L24.6842 25.1902C22.1142 27.7265 18.5727 29.2937 14.6625 29.2937C6.81164 29.2937 0.447255 22.9758 0.447255 15.1821C0.447255 7.38854 6.81164 1.07056 14.6625 1.07056Z" fill="#F7F7F7"/>
<path d="M51.1942 1H58.3018V29.5466H51.1942V1Z" fill="#D01F2E"/>
<path d="M61.8564 1H68.964V29.5466H61.8564V1Z" fill="#4263EC"/>
<path d="M72.5186 1H79.6262V29.5466H72.5186V1Z" fill="#FE7F00"/>
</svg>
