<svg width="40" height="48" viewBox="0 0 40 48" fill="none" xmlns="http://www.w3.org/2000/svg">
<path fill-rule="evenodd" clip-rule="evenodd" d="M25.349 25.1494L25.349 17.6362H29.712L33.9428 25.3625H39.3571L34.4738 16.7959C37.0923 15.5045 38.9547 12.5047 38.9547 9.23735C38.9547 4.53131 35.3405 0.547913 30.9176 0.547913H20.5842H0.646912V25.3625H25.349L25.349 25.1494ZM30.9176 12.8718C32.8199 12.8718 34.362 11.2309 34.362 9.20681C34.362 7.18271 32.8199 5.54185 30.9176 5.54185L25.349 5.54185V12.8718L30.9176 12.8718ZM12.4897 0.716313C15.648 0.716313 18.5084 2.07312 20.5842 4.26879L17.3464 7.73446C16.1009 6.41703 14.3847 5.60293 12.4897 5.60293C8.68505 5.60293 5.60077 8.88465 5.60077 12.9329C5.60077 16.9811 8.68505 20.2628 12.4897 20.2628C14.3672 20.2628 16.0694 19.4636 17.3119 18.1675L20.5842 21.5969C18.5084 23.7926 15.648 25.1494 12.4897 25.1494C6.14862 25.1494 1.00816 19.6799 1.00816 12.9329C1.00816 6.18585 6.14862 0.716313 12.4897 0.716313Z" fill="#F7F7F7"/>
<path d="M0.642883 30.7854H10.3205V47.4521H0.642883V30.7854Z" fill="#D01F2E"/>
<path d="M15.1574 30.7854H24.835V47.4521H15.1574V30.7854Z" fill="#4263EC"/>
<path d="M29.6796 30.7854H39.3572V47.4521H29.6796V30.7854Z" fill="#FE7F00"/>
</svg>
