<svg width="274" height="391" viewBox="0 0 274 391" fill="none" xmlns="http://www.w3.org/2000/svg">
<path fill-rule="evenodd" clip-rule="evenodd" d="M0.974609 328.397H72.1004V391.007H0.974609V328.397ZM6.81094 334.234V385.171H66.2641V334.234H6.81094Z" fill="#B4B4B4"/>
<path d="M104.664 238.349H169.954V388.089H104.664V238.349Z" fill="#443FCC"/>
<path fill-rule="evenodd" clip-rule="evenodd" d="M101.746 235.431H172.872V391.008H101.746V235.431ZM107.582 241.267V385.171H167.036V241.267H107.582Z" fill="#B4B4B4"/>
<path d="M205.44 150.35H270.729V388.089H205.44V150.35Z" fill="#443FCC"/>
<path fill-rule="evenodd" clip-rule="evenodd" d="M202.521 147.431H273.647V391.007H202.521V147.431ZM208.358 153.268V385.171H267.811V153.268H208.358Z" fill="#B4B4B4"/>
<path fill-rule="evenodd" clip-rule="evenodd" d="M228.805 0.338379H273.648V45.9871H267.811V10.3016L9.95914 268.153L5.83223 264.027L263.685 6.17471H228.805V0.338379Z" fill="#B4B4B4"/>
</svg>
