<svg width="275" height="203" viewBox="0 0 275 203" fill="none" xmlns="http://www.w3.org/2000/svg">
<path d="M72.7875 118.418L13.3613 89.6194L263.151 8.604L262.509 9.60799L114.919 135.752L147.426 151.623L97.0147 194.301L72.7875 118.418Z" fill="#4263EC"/>
<path d="M116.448 134.704L261.335 11.3417L261.95 11.3415L180.359 169.103L117.213 136.668L116.448 134.704Z" fill="#4263EC"/>
<path fill-rule="evenodd" clip-rule="evenodd" d="M68.9554 121.74L94.6977 202.368L147.649 157.54L182.365 175.372L268.78 9.45354L274.082 0.15918L0.902344 88.7607L68.9554 121.74ZM78.3718 120.588L96.9183 178.678L110.859 133.091L221.596 38.4448L78.3718 120.588ZM224.481 26.0453L25.8193 90.4781L72.6039 113.151L224.481 26.0453ZM106.11 180.495L138.848 153.019L117.779 142.335L106.11 180.495ZM178.355 162.834L247.44 29.4939L248.233 27.94L123.345 134.68L127.376 136.648L155.352 151.019L178.355 162.834Z" fill="#B4B4B4"/>
</svg>
